<svg version="1.1" id="Layer_1" xmlns="http://www.w3.org/2000/svg" xmlns:xlink="http://www.w3.org/1999/xlink" x="0px" y="0px"
	 width="100%" viewBox="0 0 512 512" enable-background="new 0 0 512 512" xml:space="preserve">
<path fill="#FD0343" opacity="1.000000" stroke="none" 
	d="
M513.000000,93.000000 
	C513.000000,106.020897 513.000000,119.041786 512.625366,132.553375 
	C504.966064,136.628555 497.699738,140.250900 490.393127,143.790146 
	C470.818390,153.271973 451.207275,162.678833 431.647003,172.190353 
	C414.330048,180.611069 397.045013,189.097885 379.778381,197.621399 
	C367.579102,203.643433 355.455383,209.818863 343.238647,215.804810 
	C341.664154,216.576279 339.733032,216.619965 337.860657,216.589233 
	C336.781097,215.094406 335.897705,213.195679 334.818512,213.076996 
	C331.226257,212.681900 327.563721,212.925293 323.928131,212.925034 
	C317.235138,212.924576 310.542145,212.924896 303.385803,212.924896 
	C303.385803,220.795914 303.385803,227.886337 303.027893,234.990295 
	C299.153839,236.423691 295.616547,237.793701 292.125793,239.273468 
	C284.253143,242.610703 277.564392,248.835007 268.297424,248.529099 
	C268.194244,241.962875 268.246429,235.855713 268.153961,229.750748 
	C267.999725,219.568680 261.528900,213.104431 251.441635,212.920578 
	C249.960617,212.893600 248.480804,212.799454 247.036896,212.395325 
	C248.506821,210.807083 249.753448,209.176651 251.402893,208.372421 
	C266.611664,200.957092 281.981384,193.867722 297.121552,186.317139 
	C311.205322,179.293411 324.962952,171.615372 339.051208,164.601227 
	C356.424652,155.951477 373.992432,147.692032 391.474579,139.260529 
	C397.136963,136.529587 402.838867,133.876099 408.443848,131.031754 
	C418.035583,126.164314 427.488831,121.018639 437.145172,116.285568 
	C444.723419,112.571106 452.591003,109.450119 460.203156,105.800888 
	C470.496826,100.866142 480.720184,95.777496 490.873779,90.560402 
	C496.720886,87.556053 502.370941,84.168106 508.438477,81.162857 
	C509.540314,84.941154 510.256775,88.523849 511.158173,92.059380 
	C511.270721,92.500755 512.362122,92.692551 513.000000,93.000000 
z"/>
<path fill="#F60E35" opacity="1.000000" stroke="none" 
	d="
M0.999999,233.000000 
	C1.000000,225.645752 1.000000,218.291504 1.354162,210.400665 
	C16.013861,203.289322 30.395117,196.872955 44.598442,190.084320 
	C54.138733,185.524445 63.368439,180.319427 72.841026,175.612183 
	C89.744957,167.212067 106.737961,158.991348 123.668343,150.644135 
	C127.077126,148.963516 130.301804,146.903152 133.735748,145.281189 
	C140.923950,141.886002 148.275375,138.830048 155.410278,135.330063 
	C163.142975,131.536835 170.632263,127.247353 178.364990,123.454178 
	C184.895340,120.250832 191.701706,117.611488 198.242447,114.427780 
	C207.311905,110.013206 216.200241,105.227501 225.253082,100.777580 
	C234.034607,96.461021 243.015656,92.545143 251.744736,88.128471 
	C261.040558,83.425034 270.050812,78.156273 279.355347,73.471123 
	C289.992523,68.114944 300.854370,63.207024 311.548096,57.960590 
	C321.233612,53.208797 330.755035,48.119850 340.474335,43.440239 
	C352.529297,37.636059 364.747070,32.170887 376.832275,26.428307 
	C388.500244,20.883991 400.132080,15.259130 411.687225,9.484502 
	C415.280273,7.688886 418.571503,5.289269 422.402283,3.099468 
	C430.551147,5.651874 438.298615,8.270975 445.873047,11.185982 
	C443.558136,13.283404 441.664581,15.575858 439.233398,16.805202 
	C425.467560,23.766033 411.597717,30.523535 397.709900,37.239780 
	C392.178650,39.914722 386.399231,42.088303 380.929413,44.875923 
	C371.506073,49.678429 362.324982,54.958405 352.878418,59.712528 
	C342.969513,64.699318 332.846436,69.258759 322.855438,74.084610 
	C305.436035,82.498505 288.031891,90.944427 270.647949,99.431358 
	C254.492081,107.318718 238.378296,115.292290 222.226669,123.188370 
	C219.709091,124.419151 217.006195,125.282837 214.530869,126.585800 
	C207.005829,130.546844 199.656036,134.852951 192.043137,138.632156 
	C180.354034,144.434860 168.456345,149.816132 156.735107,155.555817 
	C147.807327,159.927628 139.031113,164.608002 130.159256,169.095291 
	C123.214241,172.608032 116.145271,175.886246 109.305756,179.590622 
	C107.237602,180.710739 105.751923,182.906296 103.539108,184.702255 
	C93.827286,184.795273 84.575790,184.795273 74.879478,184.795273 
	C74.879478,189.717163 74.879478,193.858521 74.504425,198.025497 
	C70.589500,199.391083 66.949883,200.518295 63.532974,202.120453 
	C58.306793,204.570999 53.289650,207.464691 48.083824,209.961914 
	C39.753090,213.958145 31.283876,217.667587 22.979332,221.715973 
	C15.578137,225.323975 8.320815,229.227112 0.999999,233.000000 
z"/>
<path fill="#F50F33" opacity="1.000000" stroke="none" 
	d="
M422.000885,3.166161 
	C418.571503,5.289269 415.280273,7.688886 411.687225,9.484502 
	C400.132080,15.259130 388.500244,20.883991 376.832275,26.428307 
	C364.747070,32.170887 352.529297,37.636059 340.474335,43.440239 
	C330.755035,48.119850 321.233612,53.208797 311.548096,57.960590 
	C300.854370,63.207024 289.992523,68.114944 279.355347,73.471123 
	C270.050812,78.156273 261.040558,83.425034 251.744736,88.128471 
	C243.015656,92.545143 234.034607,96.461021 225.253082,100.777580 
	C216.200241,105.227501 207.311905,110.013206 198.242447,114.427780 
	C191.701706,117.611488 184.895340,120.250832 178.364990,123.454178 
	C170.632263,127.247353 163.142975,131.536835 155.410278,135.330063 
	C148.275375,138.830048 140.923950,141.886002 133.735748,145.281189 
	C130.301804,146.903152 127.077126,148.963516 123.668343,150.644135 
	C106.737961,158.991348 89.744957,167.212067 72.841026,175.612183 
	C63.368439,180.319427 54.138733,185.524445 44.598442,190.084320 
	C30.395117,196.872955 16.013861,203.289322 1.354162,209.932037 
	C1.000000,203.978851 1.000000,197.957703 1.363530,191.446716 
	C6.397735,188.505646 11.002201,185.916611 15.753798,183.633820 
	C23.937647,179.702148 32.243690,176.025330 40.440281,172.119476 
	C46.854889,169.062775 53.136147,165.725723 59.556641,162.681961 
	C72.729836,156.436905 86.052361,150.500092 99.139206,144.081223 
	C119.104950,134.288376 138.878448,124.104095 158.824554,114.270546 
	C167.432938,110.026566 176.388000,106.481934 184.967361,102.184021 
	C193.538223,97.890358 201.696335,92.769196 210.287094,88.519646 
	C223.014221,82.223976 236.021652,76.497513 248.803131,70.308517 
	C264.311676,62.799061 279.707794,55.057537 295.155823,47.423027 
	C299.175446,45.436504 303.238922,43.536327 307.226990,41.488785 
	C316.330750,36.814697 325.302002,31.871176 334.506409,27.406883 
	C349.084076,20.336451 363.856812,13.667862 378.424591,6.577671 
	C380.928223,5.359151 382.823639,2.890934 385.000000,1.000000 
	C396.354218,1.000000 407.708466,1.000000 419.203461,1.260706 
	C420.229797,2.069661 421.115326,2.617909 422.000885,3.166161 
z"/>
<path fill="#F41131" opacity="1.000000" stroke="none" 
	d="
M384.531342,1.000000 
	C382.823639,2.890934 380.928223,5.359151 378.424591,6.577671 
	C363.856812,13.667862 349.084076,20.336451 334.506409,27.406883 
	C325.302002,31.871176 316.330750,36.814697 307.226990,41.488785 
	C303.238922,43.536327 299.175446,45.436504 295.155823,47.423027 
	C279.707794,55.057537 264.311676,62.799061 248.803131,70.308517 
	C236.021652,76.497513 223.014221,82.223976 210.287094,88.519646 
	C201.696335,92.769196 193.538223,97.890358 184.967361,102.184021 
	C176.388000,106.481934 167.432938,110.026566 158.824554,114.270546 
	C138.878448,124.104095 119.104950,134.288376 99.139206,144.081223 
	C86.052361,150.500092 72.729836,156.436905 59.556641,162.681961 
	C53.136147,165.725723 46.854889,169.062775 40.440281,172.119476 
	C32.243690,176.025330 23.937647,179.702148 15.753798,183.633820 
	C11.002201,185.916611 6.397735,188.505646 1.363530,190.978439 
	C1.000000,184.312363 1.000000,177.624710 1.357641,170.399200 
	C9.550206,165.951279 17.335907,161.938385 25.232889,158.157959 
	C34.481853,153.730286 43.914429,149.681396 53.115009,145.158295 
	C78.984016,132.440857 104.775108,119.564903 130.596313,106.750252 
	C145.732468,99.238434 160.837433,91.663025 176.010773,84.227104 
	C193.880417,75.469818 211.798965,66.812080 229.714493,58.148788 
	C248.087418,49.264320 266.507690,40.477470 284.860382,31.551575 
	C302.926025,22.765297 320.953522,13.899502 338.930328,4.933497 
	C340.540344,4.130498 341.655182,2.334721 343.000000,1.000002 
	C356.687561,1.000000 370.375122,1.000000 384.531342,1.000000 
z"/>
<path fill="#F2132F" opacity="1.000000" stroke="none" 
	d="
M342.531342,1.000002 
	C341.655182,2.334721 340.540344,4.130498 338.930328,4.933497 
	C320.953522,13.899502 302.926025,22.765297 284.860382,31.551575 
	C266.507690,40.477470 248.087418,49.264320 229.714493,58.148788 
	C211.798965,66.812080 193.880417,75.469818 176.010773,84.227104 
	C160.837433,91.663025 145.732468,99.238434 130.596313,106.750252 
	C104.775108,119.564903 78.984016,132.440857 53.115009,145.158295 
	C43.914429,149.681396 34.481853,153.730286 25.232889,158.157959 
	C17.335907,161.938385 9.550206,165.951279 1.357641,169.930664 
	C1.000000,162.979050 1.000000,155.958099 1.375392,148.446472 
	C6.863372,145.619080 12.024643,143.382339 17.077135,140.922180 
	C24.640306,137.239517 32.106209,133.357544 39.653522,129.641663 
	C44.708061,127.153084 49.880154,124.901535 54.916031,122.377121 
	C71.503586,114.061989 88.014275,105.592842 104.630730,97.336288 
	C115.772209,91.800217 127.014038,86.462967 138.267029,81.155602 
	C144.711578,78.116081 151.387711,75.552032 157.749298,72.355408 
	C170.489105,65.953819 182.962891,59.015598 195.773712,52.764572 
	C208.511063,46.549408 221.591217,41.040539 234.399033,34.964729 
	C243.225494,30.777605 251.832977,26.130285 260.558380,21.728392 
	C271.973541,15.969536 283.433929,10.299368 294.800201,4.446111 
	C296.110779,3.771202 296.944946,2.171121 298.000000,1.000000 
	C312.687561,1.000000 327.375122,1.000000 342.531342,1.000002 
z"/>
<path fill="#F1142C" opacity="1.000000" stroke="none" 
	d="
M297.531342,1.000000 
	C296.944946,2.171121 296.110779,3.771202 294.800201,4.446111 
	C283.433929,10.299368 271.973541,15.969536 260.558380,21.728392 
	C251.832977,26.130285 243.225494,30.777605 234.399033,34.964729 
	C221.591217,41.040539 208.511063,46.549408 195.773712,52.764572 
	C182.962891,59.015598 170.489105,65.953819 157.749298,72.355408 
	C151.387711,75.552032 144.711578,78.116081 138.267029,81.155602 
	C127.014038,86.462967 115.772209,91.800217 104.630730,97.336288 
	C88.014275,105.592842 71.503586,114.061989 54.916031,122.377121 
	C49.880154,124.901535 44.708061,127.153084 39.653522,129.641663 
	C32.106209,133.357544 24.640306,137.239517 17.077135,140.922180 
	C12.024643,143.382339 6.863372,145.619080 1.375392,147.977905 
	C1.000000,141.312363 1.000000,134.624710 1.373453,127.446777 
	C3.152867,126.474411 4.633651,126.142952 5.953347,125.487267 
	C21.150768,117.936470 36.298676,110.285767 51.510838,102.764969 
	C64.738022,96.225533 78.053764,89.865318 91.287598,83.339172 
	C104.517403,76.815010 117.651405,70.095718 130.906235,63.623405 
	C143.974335,57.242283 157.185196,51.153534 170.252365,44.770561 
	C183.337952,38.378590 196.304306,31.742983 209.361115,25.291451 
	C215.307465,22.353289 221.376541,19.664118 227.334091,16.747896 
	C234.033356,13.468605 240.745728,10.200712 247.297272,6.642283 
	C250.068771,5.136970 252.444427,2.902862 255.000000,1.000003 
	C269.020905,1.000000 283.041779,1.000000 297.531342,1.000000 
z"/>
<path fill="#F0162A" opacity="1.000000" stroke="none" 
	d="
M254.531342,1.000003 
	C252.444427,2.902862 250.068771,5.136970 247.297272,6.642283 
	C240.745728,10.200712 234.033356,13.468605 227.334091,16.747896 
	C221.376541,19.664118 215.307465,22.353289 209.361115,25.291451 
	C196.304306,31.742983 183.337952,38.378590 170.252365,44.770561 
	C157.185196,51.153534 143.974335,57.242283 130.906235,63.623405 
	C117.651405,70.095718 104.517403,76.815010 91.287598,83.339172 
	C78.053764,89.865318 64.738022,96.225533 51.510838,102.764969 
	C36.298676,110.285767 21.150768,117.936470 5.953347,125.487267 
	C4.633651,126.142952 3.152867,126.474411 1.373453,126.978241 
	C1.000000,119.312424 1.000000,111.624847 1.361537,103.400024 
	C6.370090,100.669403 11.019635,98.481369 15.663601,96.281563 
	C25.922575,91.421989 36.224407,86.650009 46.424328,81.669403 
	C58.803894,75.624466 71.083862,69.375900 83.432487,63.267136 
	C88.911926,60.556499 94.496513,58.057133 99.959152,55.314068 
	C112.397987,49.067913 124.744461,42.636406 137.220749,36.466839 
	C144.207458,33.011894 151.435303,30.047260 158.454285,26.654417 
	C172.628250,19.802999 186.774109,12.889607 200.816589,5.774856 
	C202.567902,4.887540 203.622543,2.625208 205.000000,1.000000 
	C221.354233,1.000000 237.708450,1.000000 254.531342,1.000003 
z"/>
<path fill="#EF1927" opacity="1.000000" stroke="none" 
	d="
M204.531342,1.000000 
	C203.622543,2.625208 202.567902,4.887540 200.816589,5.774856 
	C186.774109,12.889607 172.628250,19.802999 158.454285,26.654417 
	C151.435303,30.047260 144.207458,33.011894 137.220749,36.466839 
	C124.744461,42.636406 112.397987,49.067913 99.959152,55.314068 
	C94.496513,58.057133 88.911926,60.556499 83.432487,63.267136 
	C71.083862,69.375900 58.803894,75.624466 46.424328,81.669403 
	C36.224407,86.650009 25.922575,91.421989 15.663601,96.281563 
	C11.019635,98.481369 6.370090,100.669403 1.361537,102.931389 
	C1.000000,100.299988 1.000000,97.599968 1.375407,94.662750 
	C2.163791,93.591156 2.694056,92.793793 2.971072,91.916466 
	C5.064209,85.287331 7.107623,78.642494 9.534516,71.976395 
	C14.996621,69.607132 20.131096,67.347237 25.176039,64.902588 
	C34.094978,60.580696 42.971539,56.170677 51.843403,51.752506 
	C61.493080,46.946983 71.072983,41.999290 80.765121,37.281685 
	C90.162773,32.707428 99.683647,28.387094 109.115402,23.881969 
	C121.368126,18.029394 133.632996,12.197934 145.778641,6.129261 
	C148.121750,4.958514 149.939758,2.736857 152.000000,0.999998 
	C169.354233,1.000000 186.708450,1.000000 204.531342,1.000000 
z"/>
<path fill="#FC0442" opacity="1.000000" stroke="none" 
	d="
M0.999997,372.000000 
	C1.000000,353.979095 1.000000,335.958221 1.344988,317.394470 
	C14.487332,310.387787 27.256477,303.867218 40.093536,297.483215 
	C46.859650,294.118378 53.743713,290.990692 60.575745,287.758484 
	C65.342613,285.503357 70.111534,283.252594 74.961868,281.421509 
	C75.808662,296.446564 81.641617,308.383362 93.627762,317.055908 
	C96.418488,319.075104 99.283356,320.991882 101.811035,323.129303 
	C97.011726,325.809845 92.626770,328.547852 87.997223,330.778229 
	C76.636017,336.251678 65.130836,341.425415 53.741665,346.841858 
	C40.291737,353.238281 26.910494,359.778931 13.483013,366.222778 
	C9.349766,368.206360 5.162515,370.077393 0.999997,372.000000 
z"/>
<path fill="#FA034C" opacity="1.000000" stroke="none" 
	d="
M337.967102,217.000763 
	C339.733032,216.619965 341.664154,216.576279 343.238647,215.804810 
	C355.455383,209.818863 367.579102,203.643433 379.778381,197.621399 
	C397.045013,189.097885 414.330048,180.611069 431.647003,172.190353 
	C451.207275,162.678833 470.818390,153.271973 490.393127,143.790146 
	C497.699738,140.250900 504.966064,136.628555 512.625366,133.022034 
	C513.000000,141.020905 513.000000,149.041809 512.645874,157.599442 
	C502.098877,162.976913 491.862305,167.728012 481.722412,172.677200 
	C461.163727,182.711731 440.611572,192.762268 420.168427,203.028671 
	C416.118195,205.062653 412.569489,208.095322 408.332703,210.681900 
	C406.223236,210.514008 404.574310,210.223969 402.917267,210.165619 
	C380.848114,209.388260 364.174988,218.798538 351.837463,237.090729 
	C346.954803,238.728485 342.461151,240.365570 337.864166,241.543701 
	C337.829590,233.056747 337.898346,225.028748 337.967102,217.000763 
z"/>
<path fill="#893BFD" opacity="1.000000" stroke="none" 
	d="
M513.000000,355.000000 
	C513.000000,358.692902 513.000000,362.385834 512.625244,366.561279 
	C510.695007,367.598938 509.069946,368.011292 507.594330,368.730316 
	C478.596161,382.860199 449.609344,397.013397 420.632568,411.187134 
	C388.364899,426.970612 356.081329,442.721985 323.856720,458.592926 
	C289.822052,475.355408 255.839355,492.223572 221.874527,509.127106 
	C220.057281,510.031494 218.616196,511.691681 217.000000,513.000000 
	C209.312424,513.000000 201.624832,513.000000 193.546021,512.661499 
	C194.802185,511.032501 196.283768,509.403839 198.122025,508.502808 
	C222.180084,496.710571 246.314682,485.074554 270.378418,473.293793 
	C307.891449,454.928711 345.377136,436.507599 382.851776,418.064270 
	C418.838409,400.353180 454.772125,382.534393 490.786926,364.880829 
	C498.058533,361.316437 505.588928,358.279938 513.000000,355.000000 
z"/>
<path fill="#F9083C" opacity="1.000000" stroke="none" 
	d="
M74.879532,280.999847 
	C70.111534,283.252594 65.342613,285.503357 60.575745,287.758484 
	C53.743713,290.990692 46.859650,294.118378 40.093536,297.483215 
	C27.256477,303.867218 14.487332,310.387787 1.344988,316.925812 
	C1.000000,299.979095 1.000000,282.958221 1.376789,265.446289 
	C3.154758,264.477173 4.624855,264.141052 5.946549,263.499268 
	C20.514101,256.425629 35.030727,249.246429 49.632740,242.245117 
	C52.560555,240.841293 55.789459,240.065445 58.961147,239.428070 
	C59.127941,241.114853 59.213131,242.373596 59.331287,244.119476 
	C64.759758,244.119476 69.817665,244.119476 74.879532,244.119476 
	C74.879532,256.760925 74.879532,268.880402 74.879532,280.999847 
z"/>
<path fill="#ED1C24" opacity="1.000000" stroke="none" 
	d="
M151.531342,0.999998 
	C149.939758,2.736857 148.121750,4.958514 145.778641,6.129261 
	C133.632996,12.197934 121.368126,18.029394 109.115402,23.881969 
	C99.683647,28.387094 90.162773,32.707428 80.765121,37.281685 
	C71.072983,41.999290 61.493080,46.946983 51.843403,51.752506 
	C42.971539,56.170677 34.094978,60.580696 25.176039,64.902588 
	C20.131096,67.347237 14.996621,69.607132 9.475624,71.610519 
	C9.362381,70.525200 9.655623,69.770248 9.992572,69.035339 
	C18.186113,51.164700 29.586046,35.883854 45.440868,23.967989 
	C59.107819,13.696446 74.170631,6.703570 90.807892,2.942567 
	C91.642326,2.753934 92.273941,1.668085 93.000000,0.999999 
	C112.354225,1.000000 131.708450,1.000000 151.531342,0.999998 
z"/>
<path fill="#9036F3" opacity="1.000000" stroke="none" 
	d="
M513.000000,354.545898 
	C505.588928,358.279938 498.058533,361.316437 490.786926,364.880829 
	C454.772125,382.534393 418.838409,400.353180 382.851776,418.064270 
	C345.377136,436.507599 307.891449,454.928711 270.378418,473.293793 
	C246.314682,485.074554 222.180084,496.710571 198.122025,508.502808 
	C196.283768,509.403839 194.802185,511.032501 193.077393,512.661499 
	C186.645599,513.000000 180.291214,513.000000 173.572006,512.674805 
	C174.810059,511.230408 176.300674,509.883759 178.033737,509.028442 
	C190.723068,502.765839 203.486649,496.653778 216.179108,490.397461 
	C267.244354,465.226654 318.293243,440.022675 369.345581,414.825714 
	C375.605469,411.736115 381.830902,408.576355 388.105408,405.516968 
	C402.316711,398.587708 416.577637,391.759644 430.765625,384.783173 
	C453.176819,373.763214 475.524841,362.614685 497.946533,351.616272 
	C502.863159,349.204559 507.976990,347.194855 513.000000,345.000000 
	C513.000000,348.030609 513.000000,351.061188 513.000000,354.545898 
z"/>
<path fill="#B524B8" opacity="1.000000" stroke="none" 
	d="
M513.000000,286.000000 
	C513.000000,287.066803 513.000000,288.133575 512.649170,289.667206 
	C508.351501,292.512482 504.545898,295.174652 500.434326,297.222473 
	C477.060883,308.863892 453.631897,320.394470 430.188263,331.894318 
	C399.706085,346.846802 369.171356,361.692200 338.698639,376.663788 
	C310.936096,390.303802 283.229584,404.057892 255.491852,417.748535 
	C231.623383,429.529388 207.795120,441.393280 183.857620,453.032379 
	C161.889740,463.713776 139.753296,474.048462 117.783249,484.725464 
	C106.910393,490.009460 96.188072,495.613770 85.524422,501.310486 
	C82.758133,502.788269 80.468948,505.159149 77.578125,507.069336 
	C74.172073,505.808990 71.148521,504.599091 68.501434,503.222412 
	C105.061279,485.296906 141.269363,467.588318 177.418365,449.759949 
	C197.861725,439.677399 218.157837,429.296051 238.612244,419.236298 
	C258.933502,409.242035 279.402954,399.549591 299.748718,389.604584 
	C335.503967,372.127411 371.233582,354.597321 406.937897,337.016235 
	C438.171570,321.636536 469.335724,306.115570 500.586761,290.771484 
	C504.550018,288.825531 508.853943,287.573517 513.000000,286.000000 
z"/>
<path fill="#F30656" opacity="1.000000" stroke="none" 
	d="
M0.999999,421.000000 
	C1.000000,417.637909 1.000000,414.275787 1.357649,410.387573 
	C4.003805,408.882568 6.342397,408.005493 8.572886,406.908600 
	C26.337208,398.172302 44.083736,389.399750 61.830318,380.627411 
	C75.667625,373.787445 89.474228,366.885010 103.335648,360.094360 
	C122.595558,350.658997 141.921021,341.356689 161.127426,331.814240 
	C162.766953,330.999664 163.723679,328.810822 165.459991,327.178711 
	C173.421661,327.096985 180.920929,327.096985 188.969177,327.096985 
	C188.969177,322.527466 188.969177,318.764465 189.345886,314.979645 
	C191.566711,314.263031 193.485153,313.718445 195.242828,312.848938 
	C206.515839,307.271973 217.722687,301.560242 229.029953,296.054443 
	C231.193207,295.001129 233.706360,294.666412 236.305420,294.265045 
	C237.847107,297.964478 239.141495,301.399078 240.078400,304.984497 
	C221.221649,314.219513 202.737961,323.335571 184.219299,332.380035 
	C158.840668,344.774841 133.405518,357.054199 108.049820,369.495575 
	C80.433716,383.046051 52.891071,396.746185 25.293467,410.334473 
	C17.867107,413.990967 10.357388,417.478149 2.517384,420.876831 
	C1.765885,420.807098 1.382941,420.903534 0.999999,421.000000 
z"/>
<path fill="#000000" opacity="1.000000" stroke="none" 
	d="
M0.999999,421.468658 
	C1.382941,420.903534 1.765885,420.807098 2.564507,421.281494 
	C3.709086,424.900879 4.437985,427.949432 5.106887,431.375671 
	C6.326899,434.850098 7.606908,437.946777 8.934501,441.416016 
	C10.043530,444.191681 11.104977,446.594818 12.195345,449.330322 
	C13.112977,451.124054 14.001688,452.585358 14.942339,454.379272 
	C15.623605,455.820923 16.252934,456.929962 17.014530,458.337158 
	C18.061375,459.772858 18.975946,460.910431 19.943977,462.397522 
	C21.648418,464.866882 23.299400,466.986755 24.979492,469.436737 
	C25.988449,470.879120 26.968298,471.991425 28.082077,473.404633 
	C29.774023,475.486420 31.332041,477.267365 33.029942,479.352692 
	C35.076946,481.120483 36.984074,482.583862 39.020561,484.339966 
	C40.396793,485.770996 41.643661,486.909302 43.037666,488.338318 
	C44.549133,489.621002 45.913464,490.612976 47.571976,491.774872 
	C49.562679,493.000671 51.259205,494.056580 53.092587,495.394379 
	C54.136002,496.152527 55.042557,496.628784 56.116554,497.409973 
	C58.899326,498.943390 61.514660,500.171875 64.351639,501.647583 
	C65.757179,502.392914 66.941071,502.891052 68.124962,503.389160 
	C71.148521,504.599091 74.172073,505.808990 77.769852,507.387024 
	C79.737152,508.114502 81.130219,508.473816 82.883606,508.905334 
	C85.146126,509.353729 87.048317,509.729980 89.166931,510.441528 
	C90.922241,511.517883 92.461121,512.258911 94.000000,513.000000 
	C63.073475,513.000000 32.146950,513.000000 1.000000,513.000000 
	C1.000000,482.646118 1.000000,452.291718 0.999999,421.468658 
z"/>
<path fill="#000000" opacity="1.000000" stroke="none" 
	d="
M513.000000,420.000000 
	C513.000000,450.926514 513.000000,481.853027 513.000000,513.000000 
	C482.646118,513.000000 452.291718,513.000000 421.129211,512.697388 
	C422.544006,511.597076 424.716553,510.595093 426.997559,510.033478 
	C448.501129,504.739319 466.688995,493.768097 482.433472,477.892090 
	C484.867035,474.841522 486.994659,471.940125 489.435364,468.904236 
	C493.536835,462.526825 497.325165,456.283905 501.423950,449.885498 
	C502.767365,447.486816 503.800323,445.243652 504.911285,442.632172 
	C505.698303,440.189911 506.407349,438.115936 507.441711,435.859314 
	C508.455811,433.117737 509.144531,430.558807 509.906250,427.596985 
	C510.357941,424.810089 510.736603,422.426117 511.484283,419.877502 
	C512.235535,419.808594 512.617737,419.904297 513.000000,420.000000 
z"/>
<path fill="#000000" opacity="1.000000" stroke="none" 
	d="
M92.531342,0.999999 
	C92.273941,1.668085 91.642326,2.753934 90.807892,2.942567 
	C74.170631,6.703570 59.107819,13.696446 45.440868,23.967989 
	C29.586046,35.883854 18.186113,51.164700 9.992572,69.035339 
	C9.655623,69.770248 9.362381,70.525200 9.107670,71.636688 
	C7.107623,78.642494 5.064209,85.287331 2.971072,91.916466 
	C2.694056,92.793793 2.163791,93.591156 1.375407,94.212776 
	C1.000000,63.073475 1.000000,32.146946 1.000000,1.000000 
	C31.353872,1.000000 61.708279,1.000000 92.531342,0.999999 
z"/>
<path fill="#000000" opacity="1.000000" stroke="none" 
	d="
M422.402283,3.099465 
	C421.115326,2.617909 420.229797,2.069661 419.672119,1.260706 
	C450.926514,1.000000 481.853027,1.000000 513.000000,1.000000 
	C513.000000,31.353872 513.000000,61.708279 513.000000,92.531342 
	C512.362122,92.692551 511.270721,92.500755 511.158173,92.059380 
	C510.256775,88.523849 509.540314,84.941154 508.392914,80.773956 
	C504.443268,68.051514 498.601013,57.081539 490.966522,46.638931 
	C484.587280,39.872311 478.353241,33.416409 471.970398,26.646143 
	C463.229767,21.184549 454.637909,16.037313 446.046082,10.890078 
	C438.298615,8.270975 430.551147,5.651874 422.402283,3.099465 
z"/>
<path fill="#FC0248" opacity="1.000000" stroke="none" 
	d="
M0.999997,372.468628 
	C5.162515,370.077393 9.349766,368.206360 13.483013,366.222778 
	C26.910494,359.778931 40.291737,353.238281 53.741665,346.841858 
	C65.130836,341.425415 76.636017,336.251678 87.997223,330.778229 
	C92.626770,328.547852 97.011726,325.809845 102.208939,323.102203 
	C113.017853,326.164368 123.394531,327.510590 133.958923,327.598694 
	C131.976929,329.610657 130.268021,331.755402 128.043182,332.873627 
	C119.602394,337.116028 110.934662,340.904785 102.463272,345.088898 
	C89.657013,351.413971 76.984192,358.009155 64.180519,364.339569 
	C50.480331,371.113281 36.696136,377.717102 22.944820,384.387299 
	C15.634018,387.933411 8.315196,391.462952 0.999999,395.000000 
	C1.000000,387.645752 1.000000,380.291504 0.999997,372.468628 
z"/>
<path fill="#8044FF" opacity="1.000000" stroke="none" 
	d="
M217.467941,513.000000 
	C218.616196,511.691681 220.057281,510.031494 221.874527,509.127106 
	C255.839355,492.223572 289.822052,475.355408 323.856720,458.592926 
	C356.081329,442.721985 388.364899,426.970612 420.632568,411.187134 
	C449.609344,397.013397 478.596161,382.860199 507.594330,368.730316 
	C509.069946,368.011292 510.695007,367.598938 512.625244,367.021912 
	C513.000000,369.700012 513.000000,372.400024 512.618835,375.573059 
	C506.918365,378.332672 501.488770,380.394592 496.297913,382.942902 
	C465.952118,397.840271 435.688904,412.905853 405.345337,427.807770 
	C379.037842,440.727478 352.630219,453.443298 326.322479,466.362518 
	C297.317352,480.606384 268.365509,494.959106 239.432312,509.348572 
	C237.762558,510.178986 236.468765,511.765411 235.000000,513.000000 
	C229.311966,513.000000 223.623917,513.000000 217.467941,513.000000 
z"/>
<path fill="#A52CD0" opacity="1.000000" stroke="none" 
	d="
M513.000000,312.000000 
	C513.000000,314.041656 513.000000,316.083344 512.609253,318.567841 
	C509.882996,319.804657 507.431091,320.359070 505.229736,321.428925 
	C477.702606,334.807404 450.184235,348.204590 422.718872,361.709381 
	C391.059204,377.276550 359.450958,392.948364 327.828522,408.591156 
	C319.633972,412.644867 311.499756,416.821320 303.286011,420.835266 
	C277.433411,433.469055 251.541443,446.022308 225.692047,458.662659 
	C191.903305,475.185455 158.126404,491.732727 124.401833,508.385773 
	C122.343605,509.402100 120.788956,511.438324 119.000000,513.000000 
	C115.307091,513.000000 111.614182,513.000000 107.534103,512.659729 
	C111.588783,509.633698 115.862389,506.607452 120.499207,504.316254 
	C156.492371,486.530884 192.579498,468.935822 228.590271,451.185974 
	C263.411163,434.022614 298.175720,416.744904 332.965271,399.517975 
	C334.159943,398.926453 335.355560,398.336792 336.554291,397.753601 
	C372.493378,380.267548 408.457825,362.833282 444.361145,345.274048 
	C460.506042,337.378082 476.491882,329.157318 492.624878,321.236633 
	C499.315491,317.951782 506.202362,315.066833 513.000000,312.000000 
z"/>
<path fill="#F8054F" opacity="1.000000" stroke="none" 
	d="
M0.999999,395.466125 
	C8.315196,391.462952 15.634018,387.933411 22.944820,384.387299 
	C36.696136,377.717102 50.480331,371.113281 64.180519,364.339569 
	C76.984192,358.009155 89.657013,351.413971 102.463272,345.088898 
	C110.934662,340.904785 119.602394,337.116028 128.043182,332.873627 
	C130.268021,331.755402 131.976929,329.610657 134.416931,327.515808 
	C138.765747,327.094299 142.620392,327.094299 146.612350,327.094299 
	C146.812439,325.474945 146.965622,324.235352 147.507263,322.995728 
	C150.133423,322.662598 152.371109,322.329498 154.703857,322.439209 
	C154.925659,324.246918 155.052383,325.611786 155.205444,327.260406 
	C158.790421,327.260406 161.894012,327.260406 164.997589,327.260406 
	C163.723679,328.810822 162.766953,330.999664 161.127426,331.814240 
	C141.921021,341.356689 122.595558,350.658997 103.335648,360.094360 
	C89.474228,366.885010 75.667625,373.787445 61.830318,380.627411 
	C44.083736,389.399750 26.337208,398.172302 8.572886,406.908600 
	C6.342397,408.005493 4.003805,408.882568 1.357649,409.930725 
	C1.000000,405.310760 1.000000,400.621490 0.999999,395.466125 
z"/>
<path fill="#AB29C6" opacity="1.000000" stroke="none" 
	d="
M94.399994,513.000000 
	C92.461121,512.258911 90.922241,511.517883 89.355194,510.149231 
	C90.846893,508.533447 92.287659,507.386810 93.899109,506.581970 
	C106.857079,500.110413 119.821907,493.651550 132.832306,487.286255 
	C170.218689,468.995026 207.661774,450.819427 245.017212,432.465332 
	C278.508148,416.010040 311.912720,399.378876 345.354248,382.822937 
	C348.631683,381.200378 351.886780,379.532135 355.176056,377.934143 
	C377.492493,367.092621 399.849915,356.334839 422.127228,345.413544 
	C449.043091,332.218170 475.873840,318.849060 502.796143,305.666901 
	C506.022430,304.087158 509.590393,303.205322 513.000000,302.000000 
	C513.000000,303.388885 513.000000,304.777802 512.625244,306.605347 
	C510.395905,307.747864 508.471619,308.309601 506.697906,309.178680 
	C494.897675,314.960602 483.141388,320.832184 471.349091,326.630371 
	C420.257172,351.751678 369.157013,376.856232 318.062103,401.971436 
	C311.509796,405.192169 304.987152,408.473480 298.422241,411.668121 
	C278.969727,421.134155 259.471375,430.506531 240.051224,440.038300 
	C222.875519,448.468414 205.812149,457.127167 188.643066,465.570923 
	C159.656738,479.826294 130.606766,493.952545 101.665726,508.298889 
	C100.061272,509.094208 99.204689,511.398224 98.000000,513.000000 
	C96.933327,513.000000 95.866661,513.000000 94.399994,513.000000 
z"/>
<path fill="#AE27C2" opacity="1.000000" stroke="none" 
	d="
M513.000000,301.571533 
	C509.590393,303.205322 506.022430,304.087158 502.796143,305.666901 
	C475.873840,318.849060 449.043091,332.218170 422.127228,345.413544 
	C399.849915,356.334839 377.492493,367.092621 355.176056,377.934143 
	C351.886780,379.532135 348.631683,381.200378 345.354248,382.822937 
	C311.912720,399.378876 278.508148,416.010040 245.017212,432.465332 
	C207.661774,450.819427 170.218689,468.995026 132.832306,487.286255 
	C119.821907,493.651550 106.857079,500.110413 93.899109,506.581970 
	C92.287659,507.386810 90.846893,508.533447 89.138763,509.813934 
	C87.048317,509.729980 85.146126,509.353729 83.089592,508.556763 
	C84.671051,506.900146 86.276535,505.401093 88.162003,504.467499 
	C122.011185,487.705994 155.892792,471.009949 189.770432,454.305908 
	C228.135498,435.389282 266.481140,416.433136 304.878143,397.581543 
	C329.964996,385.264771 355.158783,373.165802 380.246063,360.850006 
	C396.531342,352.855255 412.685425,344.593719 428.944916,336.545990 
	C448.034119,327.097626 467.143707,317.689270 486.305145,308.388611 
	C495.128967,304.105621 504.097229,300.120270 513.000000,296.000000 
	C513.000000,297.714355 513.000000,299.428711 513.000000,301.571533 
z"/>
<path fill="#A82ACC" opacity="1.000000" stroke="none" 
	d="
M98.449982,513.000000 
	C99.204689,511.398224 100.061272,509.094208 101.665726,508.298889 
	C130.606766,493.952545 159.656738,479.826294 188.643066,465.570923 
	C205.812149,457.127167 222.875519,448.468414 240.051224,440.038300 
	C259.471375,430.506531 278.969727,421.134155 298.422241,411.668121 
	C304.987152,408.473480 311.509796,405.192169 318.062103,401.971436 
	C369.157013,376.856232 420.257172,351.751678 471.349091,326.630371 
	C483.141388,320.832184 494.897675,314.960602 506.697906,309.178680 
	C508.471619,308.309601 510.395905,307.747864 512.625244,307.021973 
	C513.000000,308.388885 513.000000,309.777802 513.000000,311.583344 
	C506.202362,315.066833 499.315491,317.951782 492.624878,321.236633 
	C476.491882,329.157318 460.506042,337.378082 444.361145,345.274048 
	C408.457825,362.833282 372.493378,380.267548 336.554291,397.753601 
	C335.355560,398.336792 334.159943,398.926453 332.965271,399.517975 
	C298.175720,416.744904 263.411163,434.022614 228.590271,451.185974 
	C192.579498,468.935822 156.492371,486.530884 120.499207,504.316254 
	C115.862389,506.607452 111.588783,509.633698 107.073471,512.659729 
	C104.299988,513.000000 101.599968,513.000000 98.449982,513.000000 
z"/>
<path fill="#9D30DE" opacity="1.000000" stroke="none" 
	d="
M513.000000,325.000000 
	C513.000000,326.388885 513.000000,327.777802 512.628174,329.654907 
	C507.953400,331.877686 503.502472,333.320343 499.379272,335.409729 
	C491.679077,339.311676 484.289062,343.833191 476.544556,347.638031 
	C469.566437,351.066315 462.137085,353.579529 455.175812,357.037933 
	C445.231323,361.978394 435.651123,367.654053 425.692627,372.563965 
	C416.777924,376.959290 407.470795,380.553986 398.510681,384.863464 
	C392.538361,387.735962 386.984985,391.471436 381.048309,394.427490 
	C350.643951,409.566895 320.178741,424.584045 289.727264,439.628754 
	C285.407684,441.762878 281.033783,443.786774 276.707245,445.906982 
	C233.811996,466.927856 190.912598,487.940369 148.063629,509.055206 
	C146.452377,509.849182 145.343170,511.661987 144.000000,513.000000 
	C140.307098,513.000000 136.614182,513.000000 132.538269,512.661499 
	C133.654190,511.107300 134.992218,509.567902 136.678711,508.729462 
	C146.064438,504.063232 155.559189,499.617004 164.971664,495.003723 
	C201.424942,477.137024 237.862778,459.238800 274.303436,441.346405 
	C311.960419,422.856873 349.639038,404.411102 387.262024,385.852600 
	C424.285919,367.589600 461.231659,349.168152 498.268372,330.931274 
	C503.004181,328.599365 508.081116,326.960144 513.000000,325.000000 
z"/>
<path fill="#F70C37" opacity="1.000000" stroke="none" 
	d="
M58.879539,239.000046 
	C55.789459,240.065445 52.560555,240.841293 49.632740,242.245117 
	C35.030727,249.246429 20.514101,256.425629 5.946549,263.499268 
	C4.624855,264.141052 3.154758,264.477173 1.376789,264.977600 
	C1.000000,254.645767 1.000000,244.291550 0.999999,233.468658 
	C8.320815,229.227112 15.578137,225.323975 22.979332,221.715973 
	C31.283876,217.667587 39.753090,213.958145 48.083824,209.961914 
	C53.289650,207.464691 58.306793,204.570999 63.532974,202.120453 
	C66.949883,200.518295 70.589500,199.391083 74.586235,198.486328 
	C75.043106,203.495789 75.043106,208.070068 75.043106,213.150650 
	C69.362068,213.150650 64.321342,213.150650 58.879539,213.150650 
	C58.879539,222.114395 58.879539,230.557220 58.879539,239.000046 
z"/>
<path fill="#9832E5" opacity="1.000000" stroke="none" 
	d="
M162.000000,513.000000 
	C158.307098,513.000000 154.614182,513.000000 150.540100,512.658264 
	C153.881744,509.992065 157.441727,507.339264 161.354752,505.398163 
	C181.772400,495.269836 202.274078,485.310699 222.757187,475.314545 
	C258.197418,458.019043 293.672516,440.794739 329.083221,423.439026 
	C370.606140,403.087555 412.073242,382.622345 453.569794,362.217072 
	C471.642487,353.330170 489.718781,344.450439 507.824249,335.630737 
	C509.432617,334.847229 511.269318,334.532440 513.000000,334.000000 
	C513.000000,335.714355 513.000000,337.428711 512.609253,339.576935 
	C510.330231,340.581879 508.327789,340.915985 506.571747,341.761627 
	C492.929016,348.331726 479.319397,354.971161 465.726593,361.644226 
	C426.735718,380.786072 387.743652,399.925537 348.778931,419.120575 
	C318.469818,434.051636 288.199677,449.061829 257.915741,464.043976 
	C252.551727,466.697662 247.225250,469.427704 241.846756,472.051392 
	C216.580139,484.376648 191.286545,496.646851 166.061981,509.057434 
	C164.451279,509.849915 163.342346,511.662140 162.000000,513.000000 
z"/>
<path fill="#9534EB" opacity="1.000000" stroke="none" 
	d="
M162.458069,513.000000 
	C163.342346,511.662140 164.451279,509.849915 166.061981,509.057434 
	C191.286545,496.646851 216.580139,484.376648 241.846756,472.051392 
	C247.225250,469.427704 252.551727,466.697662 257.915741,464.043976 
	C288.199677,449.061829 318.469818,434.051636 348.778931,419.120575 
	C387.743652,399.925537 426.735718,380.786072 465.726593,361.644226 
	C479.319397,354.971161 492.929016,348.331726 506.571747,341.761627 
	C508.327789,340.915985 510.330231,340.581879 512.609253,340.005402 
	C513.000000,341.388885 513.000000,342.777802 513.000000,344.583344 
	C507.976990,347.194855 502.863159,349.204559 497.946533,351.616272 
	C475.524841,362.614685 453.176819,373.763214 430.765625,384.783173 
	C416.577637,391.759644 402.316711,398.587708 388.105408,405.516968 
	C381.830902,408.576355 375.605469,411.736115 369.345581,414.825714 
	C318.293243,440.022675 267.244354,465.226654 216.179108,490.397461 
	C203.486649,496.653778 190.723068,502.765839 178.033737,509.028442 
	C176.300674,509.883759 174.810059,511.230408 173.103607,512.674805 
	C169.638718,513.000000 166.277420,513.000000 162.458069,513.000000 
z"/>
<path fill="#B126BD" opacity="1.000000" stroke="none" 
	d="
M513.000000,295.571533 
	C504.097229,300.120270 495.128967,304.105621 486.305145,308.388611 
	C467.143707,317.689270 448.034119,327.097626 428.944916,336.545990 
	C412.685425,344.593719 396.531342,352.855255 380.246063,360.850006 
	C355.158783,373.165802 329.964996,385.264771 304.878143,397.581543 
	C266.481140,416.433136 228.135498,435.389282 189.770432,454.305908 
	C155.892792,471.009949 122.011185,487.705994 88.162003,504.467499 
	C86.276535,505.401093 84.671051,506.900146 82.729263,508.484558 
	C81.130219,508.473816 79.737152,508.114502 78.152351,507.437500 
	C80.468948,505.159149 82.758133,502.788269 85.524422,501.310486 
	C96.188072,495.613770 106.910393,490.009460 117.783249,484.725464 
	C139.753296,474.048462 161.889740,463.713776 183.857620,453.032379 
	C207.795120,441.393280 231.623383,429.529388 255.491852,417.748535 
	C283.229584,404.057892 310.936096,390.303802 338.698639,376.663788 
	C369.171356,361.692200 399.706085,346.846802 430.188263,331.894318 
	C453.631897,320.394470 477.060883,308.863892 500.434326,297.222473 
	C504.545898,295.174652 508.351501,292.512482 512.649170,290.067017 
	C513.000000,291.714355 513.000000,293.428711 513.000000,295.571533 
z"/>
<path fill="#B723B4" opacity="1.000000" stroke="none" 
	d="
M68.501434,503.222412 
	C66.941071,502.891052 65.757179,502.392914 64.727829,501.478088 
	C112.535385,477.567505 160.191040,454.078949 207.838669,430.574097 
	C215.289413,426.898621 222.678513,423.097839 230.138992,419.442505 
	C260.642639,404.496857 291.164307,389.587830 321.675507,374.657593 
	C325.708588,372.684052 329.707916,370.641510 333.743011,368.672180 
	C359.635742,356.035248 385.551910,343.445862 411.385742,330.689697 
	C412.905426,329.939331 413.776459,327.875305 415.247284,326.250732 
	C422.312439,322.582886 429.079681,319.086945 436.079224,315.823578 
	C439.543884,315.035797 442.964844,314.401428 445.976959,312.930054 
	C461.227875,305.480164 476.313263,297.690552 491.581116,290.276367 
	C498.573425,286.880890 505.851532,284.073883 513.000000,281.000000 
	C513.000000,282.388885 513.000000,283.777802 513.000000,285.583374 
	C508.853943,287.573517 504.550018,288.825531 500.586761,290.771484 
	C469.335724,306.115570 438.171570,321.636536 406.937897,337.016235 
	C371.233582,354.597321 335.503967,372.127411 299.748718,389.604584 
	C279.402954,399.549591 258.933502,409.242035 238.612244,419.236298 
	C218.157837,429.296051 197.861725,439.677399 177.418365,449.759949 
	C141.269363,467.588318 105.061279,485.296906 68.501434,503.222412 
z"/>
<path fill="#F20758" opacity="1.000000" stroke="none" 
	d="
M408.789520,210.667450 
	C412.569489,208.095322 416.118195,205.062653 420.168427,203.028671 
	C440.611572,192.762268 461.163727,182.711731 481.722412,172.677200 
	C491.862305,167.728012 502.098877,162.976913 512.645874,158.068085 
	C513.000000,164.021149 513.000000,170.042297 512.638489,176.600800 
	C506.244385,179.896118 500.169861,182.566483 494.188141,185.430786 
	C482.630554,190.965042 471.077637,196.513138 459.612549,202.235413 
	C449.347717,207.358658 439.203613,212.723740 428.661011,217.908295 
	C421.807037,215.445465 415.298279,213.056458 408.789520,210.667450 
z"/>
<path fill="#6F5AFF" opacity="1.000000" stroke="none" 
	d="
M281.000000,513.000000 
	C276.643097,513.000000 272.286194,513.000000 267.542023,512.661438 
	C268.653839,511.106873 269.990845,509.564301 271.677856,508.726959 
	C284.191071,502.516266 296.789581,496.477753 309.331818,490.325165 
	C346.833435,471.928711 384.334320,453.530731 421.810822,435.083130 
	C450.197388,421.109955 478.538788,407.044952 506.928070,393.077301 
	C508.831879,392.140625 510.970581,391.681335 513.000000,391.000000 
	C513.000000,393.041656 513.000000,395.083344 512.636841,397.631042 
	C509.801941,399.114319 507.249969,399.927734 504.870453,401.093353 
	C467.789581,419.257416 430.714783,437.434113 393.672363,455.676331 
	C363.198181,470.683929 332.774475,485.793915 302.312042,500.825348 
	C298.135986,502.886047 293.738068,504.526581 289.680176,506.787567 
	C286.591766,508.508331 283.879578,510.904388 281.000000,513.000000 
z"/>
<path fill="#7A4CFF" opacity="1.000000" stroke="none" 
	d="
M235.460648,513.000000 
	C236.468765,511.765411 237.762558,510.178986 239.432312,509.348572 
	C268.365509,494.959106 297.317352,480.606384 326.322479,466.362518 
	C352.630219,453.443298 379.037842,440.727478 405.345337,427.807770 
	C435.688904,412.905853 465.952118,397.840271 496.297913,382.942902 
	C501.488770,380.394592 506.918365,378.332672 512.618835,376.023010 
	C513.000000,377.714355 513.000000,379.428711 512.609253,381.577209 
	C510.330811,382.582245 508.319244,382.901642 506.573730,383.761322 
	C473.910370,399.848175 441.307159,416.057312 408.629852,432.115753 
	C387.881104,442.312195 366.986847,452.212555 346.238525,462.409973 
	C314.589111,477.965057 283.000366,493.643799 251.426285,509.351379 
	C249.758560,510.181061 248.466782,511.766418 247.000000,513.000000 
	C243.307098,513.000000 239.614182,513.000000 235.460648,513.000000 
z"/>
<path fill="#3E97FF" opacity="1.000000" stroke="none" 
	d="
M501.113464,450.041016 
	C497.325165,456.283905 493.536835,462.526825 489.044739,468.916809 
	C486.136780,469.754883 483.798798,470.172974 481.748688,471.178223 
	C456.142914,483.734039 430.564301,496.345673 405.038940,509.063873 
	C403.436676,509.862183 402.334686,511.664673 401.000000,513.000000 
	C392.312439,513.000000 383.624878,513.000000 374.570160,512.677368 
	C376.022308,510.961517 377.688538,509.272491 379.692230,508.235413 
	C384.120331,505.943451 388.764496,504.073303 393.239380,501.866516 
	C422.943848,487.217834 452.594879,472.460266 482.343475,457.902008 
	C488.425812,454.925476 494.847961,452.643280 501.113464,450.041016 
z"/>
<path fill="#EA0A64" opacity="1.000000" stroke="none" 
	d="
M429.006226,217.982132 
	C439.203613,212.723740 449.347717,207.358658 459.612549,202.235413 
	C471.077637,196.513138 482.630554,190.965042 494.188141,185.430786 
	C500.169861,182.566483 506.244385,179.896118 512.638489,177.069061 
	C513.000000,182.688034 513.000000,188.376083 512.625000,194.554230 
	C506.181915,197.688950 500.019104,200.137573 494.063446,203.014984 
	C476.296234,211.599091 458.610260,220.351379 440.581970,228.910065 
	C436.516327,225.182129 432.761292,221.582123 429.006226,217.982132 
z"/>
<path fill="#5777FF" opacity="1.000000" stroke="none" 
	d="
M511.115295,420.042145 
	C510.736603,422.426117 510.357941,424.810089 509.526093,427.603394 
	C507.787628,428.312683 506.398468,428.393799 505.233429,428.946991 
	C495.610291,433.516418 485.985718,438.086670 476.443146,442.821136 
	C454.827881,453.545410 433.307159,464.461029 411.658630,475.117279 
	C388.503174,486.515228 365.228851,497.671631 342.066895,509.056458 
	C340.454651,509.848938 339.343933,511.661682 338.000000,513.000000 
	C333.643097,513.000000 329.286194,513.000000 324.541992,512.661438 
	C325.949005,510.958740 327.577454,509.257233 329.562531,508.281128 
	C358.646393,493.980286 387.803375,479.828217 416.890778,465.534546 
	C445.998444,451.230865 475.038910,436.790436 504.140991,422.475342 
	C506.334076,421.396576 508.784485,420.840942 511.115295,420.042145 
z"/>
<path fill="#A02ED9" opacity="1.000000" stroke="none" 
	d="
M513.000000,324.625000 
	C508.081116,326.960144 503.004181,328.599365 498.268372,330.931274 
	C461.231659,349.168152 424.285919,367.589600 387.262024,385.852600 
	C349.639038,404.411102 311.960419,422.856873 274.303436,441.346405 
	C237.862778,459.238800 201.424942,477.137024 164.971664,495.003723 
	C155.559189,499.617004 146.064438,504.063232 136.678711,508.729462 
	C134.992218,509.567902 133.654190,511.107300 132.077637,512.661499 
	C129.958328,513.000000 127.916664,513.000000 125.541107,512.674805 
	C126.809593,511.230621 128.299683,509.884796 130.031586,509.027435 
	C149.871811,499.206177 169.744965,489.451355 189.616867,479.694183 
	C225.763229,461.946136 261.922668,444.224762 298.061920,426.462219 
	C340.044006,405.827820 382.017517,385.176086 423.980652,364.503235 
	C451.452515,350.969391 478.887238,337.360016 506.382172,323.873444 
	C508.407227,322.880127 510.785797,322.607635 513.000000,322.000000 
	C513.000000,322.750000 513.000000,323.500000 513.000000,324.625000 
z"/>
<path fill="#7255FF" opacity="1.000000" stroke="none" 
	d="
M513.000000,390.583374 
	C510.970581,391.681335 508.831879,392.140625 506.928070,393.077301 
	C478.538788,407.044952 450.197388,421.109955 421.810822,435.083130 
	C384.334320,453.530731 346.833435,471.928711 309.331818,490.325165 
	C296.789581,496.477753 284.191071,502.516266 271.677856,508.726959 
	C269.990845,509.564301 268.653839,511.106873 267.077393,512.661438 
	C263.969391,513.000000 260.938812,513.000000 257.531494,512.661377 
	C258.654266,511.106659 259.994171,509.570679 261.680664,508.729370 
	C269.269470,504.943909 276.986969,501.417419 284.602570,497.684326 
	C305.830444,487.278748 327.039032,476.833679 348.240021,466.373352 
	C376.619751,452.371155 404.980225,438.329834 433.358337,424.324341 
	C456.209045,413.046783 479.058136,401.765656 501.948242,390.568542 
	C505.521973,388.820404 509.310699,387.511841 513.000000,386.000000 
	C513.000000,387.388885 513.000000,388.777802 513.000000,390.583374 
z"/>
<path fill="#A22DD5" opacity="1.000000" stroke="none" 
	d="
M513.000000,321.625000 
	C510.785797,322.607635 508.407227,322.880127 506.382172,323.873444 
	C478.887238,337.360016 451.452515,350.969391 423.980652,364.503235 
	C382.017517,385.176086 340.044006,405.827820 298.061920,426.462219 
	C261.922668,444.224762 225.763229,461.946136 189.616867,479.694183 
	C169.744965,489.451355 149.871811,499.206177 130.031586,509.027435 
	C128.299683,509.884796 126.809593,511.230621 125.103607,512.674805 
	C123.285645,513.000000 121.571281,513.000000 119.428467,513.000000 
	C120.788956,511.438324 122.343605,509.402100 124.401833,508.385773 
	C158.126404,491.732727 191.903305,475.185455 225.692047,458.662659 
	C251.541443,446.022308 277.433411,433.469055 303.286011,420.835266 
	C311.499756,416.821320 319.633972,412.644867 327.828522,408.591156 
	C359.450958,392.948364 391.059204,377.276550 422.718872,361.709381 
	C450.184235,348.204590 477.702606,334.807404 505.229736,321.428925 
	C507.431091,320.359070 509.882996,319.804657 512.609253,319.005341 
	C513.000000,319.750000 513.000000,320.500000 513.000000,321.625000 
z"/>
<path fill="#9A31E1" opacity="1.000000" stroke="none" 
	d="
M513.000000,333.600006 
	C511.269318,334.532440 509.432617,334.847229 507.824249,335.630737 
	C489.718781,344.450439 471.642487,353.330170 453.569794,362.217072 
	C412.073242,382.622345 370.606140,403.087555 329.083221,423.439026 
	C293.672516,440.794739 258.197418,458.019043 222.757187,475.314545 
	C202.274078,485.310699 181.772400,495.269836 161.354752,505.398163 
	C157.441727,507.339264 153.881744,509.992065 150.079453,512.658264 
	C148.285645,513.000000 146.571289,513.000000 144.428467,513.000000 
	C145.343170,511.661987 146.452377,509.849182 148.063629,509.055206 
	C190.912598,487.940369 233.811996,466.927856 276.707245,445.906982 
	C281.033783,443.786774 285.407684,441.762878 289.727264,439.628754 
	C320.178741,424.584045 350.643951,409.566895 381.048309,394.427490 
	C386.984985,391.471436 392.538361,387.735962 398.510681,384.863464 
	C407.470795,380.553986 416.777924,376.959290 425.692627,372.563965 
	C435.651123,367.654053 445.231323,361.978394 455.175812,357.037933 
	C462.137085,353.579529 469.566437,351.066315 476.544556,347.638031 
	C484.289062,343.833191 491.679077,339.311676 499.379272,335.409729 
	C503.502472,333.320343 507.953400,331.877686 512.628174,330.071594 
	C513.000000,331.066681 513.000000,332.133331 513.000000,333.600006 
z"/>
<path fill="#7650FF" opacity="1.000000" stroke="none" 
	d="
M513.000000,385.600006 
	C509.310699,387.511841 505.521973,388.820404 501.948242,390.568542 
	C479.058136,401.765656 456.209045,413.046783 433.358337,424.324341 
	C404.980225,438.329834 376.619751,452.371155 348.240021,466.373352 
	C327.039032,476.833679 305.830444,487.278748 284.602570,497.684326 
	C276.986969,501.417419 269.269470,504.943909 261.680664,508.729370 
	C259.994171,509.570679 258.654266,511.106659 257.077393,512.661377 
	C253.969406,513.000000 250.938812,513.000000 247.454102,513.000000 
	C248.466782,511.766418 249.758560,510.181061 251.426285,509.351379 
	C283.000366,493.643799 314.589111,477.965057 346.238525,462.409973 
	C366.986847,452.212555 387.881104,442.312195 408.629852,432.115753 
	C441.307159,416.057312 473.910370,399.848175 506.573730,383.761322 
	C508.319244,382.901642 510.330811,382.582245 512.609253,382.005676 
	C513.000000,383.066681 513.000000,384.133331 513.000000,385.600006 
z"/>
<path fill="#517FFF" opacity="1.000000" stroke="none" 
	d="
M338.463196,513.000000 
	C339.343933,511.661682 340.454651,509.848938 342.066895,509.056458 
	C365.228851,497.671631 388.503174,486.515228 411.658630,475.117279 
	C433.307159,464.461029 454.827881,453.545410 476.443146,442.821136 
	C485.985718,438.086670 495.610291,433.516418 505.233429,428.946991 
	C506.398468,428.393799 507.787628,428.312683 509.453094,428.006348 
	C509.144531,430.558807 508.455811,433.117737 507.043701,435.855774 
	C504.132172,436.730408 501.819702,437.169617 499.775421,438.161621 
	C482.589294,446.501312 465.434601,454.906433 448.304352,463.360504 
	C417.173615,478.724060 386.057709,494.117737 354.974915,509.577820 
	C353.457886,510.332397 352.316376,511.842010 351.000000,513.000000 
	C346.975464,513.000000 342.950897,513.000000 338.463196,513.000000 
z"/>
<path fill="#5C71FF" opacity="1.000000" stroke="none" 
	d="
M511.484283,419.877502 
	C508.784485,420.840942 506.334076,421.396576 504.140991,422.475342 
	C475.038910,436.790436 445.998444,451.230865 416.890778,465.534546 
	C387.803375,479.828217 358.646393,493.980286 329.562531,508.281128 
	C327.577454,509.257233 325.949005,510.958740 324.077362,512.661438 
	C320.638702,513.000000 317.277435,513.000000 313.535767,512.660828 
	C314.953918,510.957336 316.594849,509.278534 318.578827,508.284454 
	C326.149414,504.491119 333.869049,500.996490 341.463593,497.249603 
	C372.821930,481.778534 404.148468,466.243042 435.499268,450.756744 
	C458.640656,439.325592 481.784332,427.898743 504.978546,416.575623 
	C507.476227,415.356293 510.317902,414.841583 513.000000,414.000000 
	C513.000000,415.714355 513.000000,417.428711 513.000000,419.571533 
	C512.617737,419.904297 512.235535,419.808594 511.484283,419.877502 
z"/>
<path fill="#6961FF" opacity="1.000000" stroke="none" 
	d="
M281.444153,513.000000 
	C283.879578,510.904388 286.591766,508.508331 289.680176,506.787567 
	C293.738068,504.526581 298.135986,502.886047 302.312042,500.825348 
	C332.774475,485.793915 363.198181,470.683929 393.672363,455.676331 
	C430.714783,437.434113 467.789581,419.257416 504.870453,401.093353 
	C507.249969,399.927734 509.801941,399.114319 512.636841,398.068542 
	C513.000000,399.066681 513.000000,400.133331 512.636963,401.669067 
	C509.504028,403.264740 506.654602,404.229248 503.976074,405.542389 
	C465.267944,424.519287 426.567230,443.511444 387.896973,462.565338 
	C356.526276,478.022522 325.188599,493.546906 293.878204,509.125671 
	C292.059753,510.030457 290.617401,511.691132 289.000000,513.000000 
	C286.629425,513.000000 284.258881,513.000000 281.444153,513.000000 
z"/>
<path fill="#6665FF" opacity="1.000000" stroke="none" 
	d="
M289.450012,513.000000 
	C290.617401,511.691132 292.059753,510.030457 293.878204,509.125671 
	C325.188599,493.546906 356.526276,478.022522 387.896973,462.565338 
	C426.567230,443.511444 465.267944,424.519287 503.976074,405.542389 
	C506.654602,404.229248 509.504028,403.264740 512.636963,402.069031 
	C513.000000,403.388885 513.000000,404.777802 512.602844,406.589661 
	C506.987335,409.083008 501.600739,410.810974 496.577759,413.278931 
	C462.182648,430.178619 427.868195,447.242432 393.517731,464.233093 
	C382.781311,469.543610 372.019958,474.803955 361.259216,480.065125 
	C341.372528,489.788116 321.460815,499.460205 301.621735,509.279083 
	C300.158936,510.003052 299.195557,511.736084 298.000000,513.000000 
	C295.299988,513.000000 292.599976,513.000000 289.450012,513.000000 
z"/>
<path fill="#4C85FF" opacity="1.000000" stroke="none" 
	d="
M351.460632,513.000000 
	C352.316376,511.842010 353.457886,510.332397 354.974915,509.577820 
	C386.057709,494.117737 417.173615,478.724060 448.304352,463.360504 
	C465.434601,454.906433 482.589294,446.501312 499.775421,438.161621 
	C501.819702,437.169617 504.132172,436.730408 506.718353,436.038452 
	C506.407349,438.115936 505.698303,440.189911 504.530518,442.638580 
	C502.337524,443.531158 500.493164,443.821808 498.885468,444.600769 
	C473.432953,456.933563 448.001404,469.309723 422.584900,481.716644 
	C404.944702,490.327545 387.302094,498.935181 369.748230,507.719452 
	C367.244873,508.972198 365.237122,511.215271 363.000000,513.000000 
	C359.307098,513.000000 355.614166,513.000000 351.460632,513.000000 
z"/>
<path fill="#E50D6C" opacity="1.000000" stroke="none" 
	d="
M440.892517,229.037979 
	C458.610260,220.351379 476.296234,211.599091 494.063446,203.014984 
	C500.019104,200.137573 506.181915,197.688950 512.625000,195.022156 
	C513.000000,198.692902 513.000000,202.385818 512.643311,206.607971 
	C500.191162,212.924469 488.115601,218.753616 475.994141,224.485779 
	C466.275269,229.081787 456.500793,233.560120 446.473755,237.897858 
	C444.428528,234.816025 442.660522,231.927002 440.892517,229.037979 
z"/>
<path fill="#CB1A95" opacity="1.000000" stroke="none" 
	d="
M513.000000,245.000000 
	C513.000000,248.030594 513.000000,251.061188 512.645752,254.613556 
	C487.532104,267.257385 462.764160,279.362213 438.038025,291.551910 
	C436.788940,292.167725 435.901276,293.516663 434.445282,294.460632 
	C430.631561,293.470032 427.217896,292.543091 423.907959,291.245667 
	C426.081116,289.378845 428.177368,287.917938 430.212677,286.376587 
	C432.501984,284.642914 434.736298,282.836670 437.455322,280.971985 
	C443.316986,280.881958 448.717865,280.881958 454.383698,280.881958 
	C454.607056,277.515411 454.790100,274.756958 455.333557,271.929871 
	C472.616516,263.663300 489.527130,255.440384 506.477112,247.299454 
	C508.542999,246.307251 510.820526,245.755737 513.000000,245.000000 
z"/>
<path fill="#6369FF" opacity="1.000000" stroke="none" 
	d="
M298.437500,513.000000 
	C299.195557,511.736084 300.158936,510.003052 301.621735,509.279083 
	C321.460815,499.460205 341.372528,489.788116 361.259216,480.065125 
	C372.019958,474.803955 382.781311,469.543610 393.517731,464.233093 
	C427.868195,447.242432 462.182648,430.178619 496.577759,413.278931 
	C501.600739,410.810974 506.987335,409.083008 512.602844,407.006317 
	C513.000000,407.750000 513.000000,408.500000 512.625305,409.646973 
	C510.396057,410.747772 508.472748,411.311157 506.698761,412.179535 
	C498.484436,416.200623 490.338623,420.361877 482.118683,424.371185 
	C459.554016,435.377167 436.932465,446.266907 414.392914,457.323914 
	C387.333893,470.597961 360.337006,483.998596 333.311859,497.341675 
	C324.825989,501.531403 316.309052,505.659882 307.878204,509.957397 
	C306.706329,510.554779 305.949127,511.965668 305.000000,513.000000 
	C302.958344,513.000000 300.916656,513.000000 298.437500,513.000000 
z"/>
<path fill="#606CFF" opacity="1.000000" stroke="none" 
	d="
M305.444153,513.000000 
	C305.949127,511.965668 306.706329,510.554779 307.878204,509.957397 
	C316.309052,505.659882 324.825989,501.531403 333.311859,497.341675 
	C360.337006,483.998596 387.333893,470.597961 414.392914,457.323914 
	C436.932465,446.266907 459.554016,435.377167 482.118683,424.371185 
	C490.338623,420.361877 498.484436,416.200623 506.698761,412.179535 
	C508.472748,411.311157 510.396057,410.747772 512.625305,410.021973 
	C513.000000,411.066681 513.000000,412.133331 513.000000,413.599976 
	C510.317902,414.841583 507.476227,415.356293 504.978546,416.575623 
	C481.784332,427.898743 458.640656,439.325592 435.499268,450.756744 
	C404.148468,466.243042 372.821930,481.778534 341.463593,497.249603 
	C333.869049,500.996490 326.149414,504.491119 318.578827,508.284454 
	C316.594849,509.278534 314.953918,510.957336 313.077698,512.660828 
	C310.629425,513.000000 308.258881,513.000000 305.444153,513.000000 
z"/>
<path fill="#D91380" opacity="1.000000" stroke="none" 
	d="
M513.000000,219.000000 
	C513.000000,223.025177 513.000000,227.050369 512.625244,231.559479 
	C502.236053,236.763138 492.250824,241.546143 482.198669,246.184189 
	C472.752777,250.542511 463.236298,254.747742 453.552612,258.703064 
	C452.589874,254.922638 451.825409,251.459518 451.431091,247.973999 
	C453.353790,247.390228 454.979004,246.974945 456.447723,246.244934 
	C471.928955,238.550247 487.362976,230.760330 502.866302,223.110703 
	C506.126556,221.502045 509.616119,220.358078 513.000000,219.000000 
z"/>
<path fill="#D0178D" opacity="1.000000" stroke="none" 
	d="
M453.750854,259.020325 
	C463.236298,254.747742 472.752777,250.542511 482.198669,246.184189 
	C492.250824,241.546143 502.236053,236.763138 512.625244,232.021698 
	C513.000000,236.024551 513.000000,240.049088 513.000000,244.536804 
	C510.820526,245.755737 508.542999,246.307251 506.477112,247.299454 
	C489.527130,255.440384 472.616516,263.663300 455.216064,271.524841 
	C454.409027,267.132355 454.079956,263.076355 453.750854,259.020325 
z"/>
<path fill="#DE1076" opacity="1.000000" stroke="none" 
	d="
M513.000000,218.539368 
	C509.616119,220.358078 506.126556,221.502045 502.866302,223.110703 
	C487.362976,230.760330 471.928955,238.550247 456.447723,246.244934 
	C454.979004,246.974945 453.353790,247.390228 451.218567,247.683685 
	C449.340942,244.307388 448.045959,241.199051 446.751007,238.090698 
	C456.500793,233.560120 466.275269,229.081787 475.994141,224.485779 
	C488.115601,218.753616 500.191162,212.924469 512.643311,207.068604 
	C513.000000,210.692902 513.000000,214.385818 513.000000,218.539368 
z"/>
<path fill="#468CFF" opacity="1.000000" stroke="none" 
	d="
M363.458069,513.000000 
	C365.237122,511.215271 367.244873,508.972198 369.748230,507.719452 
	C387.302094,498.935181 404.944702,490.327545 422.584900,481.716644 
	C448.001404,469.309723 473.432953,456.933563 498.885468,444.600769 
	C500.493164,443.821808 502.337524,443.531158 504.452515,443.006866 
	C503.800323,445.243652 502.767365,447.486816 501.423950,449.885498 
	C494.847961,452.643280 488.425812,454.925476 482.343475,457.902008 
	C452.594879,472.460266 422.943848,487.217834 393.239380,501.866516 
	C388.764496,504.073303 384.120331,505.943451 379.692230,508.235413 
	C377.688538,509.272491 376.022308,510.961517 374.101501,512.677368 
	C370.638702,513.000000 367.277435,513.000000 363.458069,513.000000 
z"/>
<path fill="#C41DA0" opacity="1.000000" stroke="none" 
	d="
M434.845337,294.524231 
	C435.901276,293.516663 436.788940,292.167725 438.038025,291.551910 
	C462.764160,279.362213 487.532104,267.257385 512.645752,255.067657 
	C513.000000,258.030609 513.000000,261.061188 512.625305,264.568115 
	C506.363983,267.686584 500.379761,270.132874 494.609314,273.008148 
	C478.431335,281.069153 462.341553,289.307190 445.857788,297.416138 
	C441.947510,296.412689 438.396423,295.468475 434.845337,294.524231 
z"/>
<path fill="#BE20A9" opacity="1.000000" stroke="none" 
	d="
M446.216949,297.475372 
	C462.341553,289.307190 478.431335,281.069153 494.609314,273.008148 
	C500.379761,270.132874 506.363983,267.686584 512.625305,265.022217 
	C513.000000,267.700012 513.000000,270.400024 512.625305,273.572021 
	C510.695984,274.598694 509.071411,275.010193 507.597351,275.729919 
	C489.812500,284.413666 472.073456,293.191650 454.252655,301.800629 
	C451.940460,302.917603 449.236572,303.223724 446.785156,303.554108 
	C447.471893,301.201141 451.510468,298.817444 446.216949,297.475372 
z"/>
<path fill="#BB21AE" opacity="1.000000" stroke="none" 
	d="
M446.714111,303.905457 
	C449.236572,303.223724 451.940460,302.917603 454.252655,301.800629 
	C472.073456,293.191650 489.812500,284.413666 507.597351,275.729919 
	C509.071411,275.010193 510.695984,274.598694 512.625305,274.021973 
	C513.000000,276.041656 513.000000,278.083344 513.000000,280.562500 
	C505.851532,284.073883 498.573425,286.880890 491.581116,290.276367 
	C476.313263,297.690552 461.227875,305.480164 445.976959,312.930054 
	C442.964844,314.401428 439.543884,315.035797 436.271240,315.567993 
	C439.725403,311.355011 443.219757,307.630249 446.714111,303.905457 
z"/>
<path fill="#36A1FF" opacity="1.000000" stroke="none" 
	d="
M401.458069,513.000000 
	C402.334686,511.664673 403.436676,509.862183 405.038940,509.063873 
	C430.564301,496.345673 456.142914,483.734039 481.748688,471.178223 
	C483.798798,470.172974 486.136780,469.754883 488.731628,469.051331 
	C486.994659,471.940125 484.867035,474.841522 482.034576,477.888702 
	C479.735535,478.434113 478.011871,478.568390 476.566650,479.273438 
	C456.704926,488.963287 436.858826,498.686188 417.084442,508.552368 
	C415.135193,509.524933 413.682922,511.493652 412.000000,513.000000 
	C408.638702,513.000000 405.277435,513.000000 401.458069,513.000000 
z"/>
<path fill="#30A9FF" opacity="1.000000" stroke="none" 
	d="
M412.449982,513.000000 
	C413.682922,511.493652 415.135193,509.524933 417.084442,508.552368 
	C436.858826,498.686188 456.704926,488.963287 476.566650,479.273438 
	C478.011871,478.568390 479.735535,478.434113 481.728638,478.037903 
	C466.688995,493.768097 448.501129,504.739319 426.997559,510.033478 
	C424.716553,510.595093 422.544006,511.597076 420.660583,512.697388 
	C418.299988,513.000000 415.599976,513.000000 412.449982,513.000000 
z"/>
<path fill="#FA073E" opacity="1.000000" stroke="none" 
	d="
M491.111755,46.949638 
	C498.601013,57.081539 504.443268,68.051514 508.064148,80.563919 
	C502.370941,84.168106 496.720886,87.556053 490.873779,90.560402 
	C480.720184,95.777496 470.496826,100.866142 460.203156,105.800888 
	C452.591003,109.450119 444.723419,112.571106 437.145172,116.285568 
	C427.488831,121.018639 418.035583,126.164314 408.443848,131.031754 
	C402.838867,133.876099 397.136963,136.529587 391.474579,139.260529 
	C373.992432,147.692032 356.424652,155.951477 339.051208,164.601227 
	C324.962952,171.615372 311.205322,179.293411 297.121552,186.317139 
	C281.981384,193.867722 266.611664,200.957092 251.402893,208.372421 
	C249.753448,209.176651 248.506821,210.807083 246.578537,212.476486 
	C242.193222,212.898712 238.302734,212.898712 234.349152,212.898712 
	C234.191162,216.432220 234.066696,219.215836 233.579254,222.021149 
	C230.941360,222.693268 228.666443,223.343689 226.298523,223.538330 
	C226.205521,219.809601 226.205521,216.536621 226.205521,213.375397 
	C215.298996,213.375397 204.838455,212.180847 194.754135,213.620941 
	C172.915741,216.739548 159.107834,231.786118 154.453781,255.006546 
	C144.899353,258.966461 135.705566,262.856293 126.577232,266.894104 
	C120.724213,269.483124 114.967644,272.290253 109.095535,274.535950 
	C109.023216,264.146057 109.023216,254.219864 109.023216,243.931305 
	C116.308655,243.931305 123.093620,243.988602 129.877258,243.917740 
	C139.831009,243.813766 146.693756,236.952881 146.927368,226.963165 
	C147.012817,223.309204 147.057602,219.654312 147.502136,215.993805 
	C149.165665,215.686371 150.560059,215.613892 151.713409,215.049118 
	C168.046783,207.051056 184.330612,198.951813 200.664917,190.955627 
	C206.615616,188.042587 212.755859,185.509262 218.653641,182.497253 
	C228.552322,177.441971 238.226257,171.941055 248.178818,166.998260 
	C259.438873,161.406158 270.895050,156.208206 282.279602,150.867966 
	C287.373108,148.478714 292.562714,146.286697 297.597961,143.782547 
	C306.766296,139.222900 315.797638,134.386353 324.988892,129.874695 
	C332.718140,126.080673 340.679321,122.756027 348.379730,118.907234 
	C356.022491,115.087250 363.384521,110.705765 371.025848,106.882736 
	C377.211304,103.788116 383.702637,101.309387 389.927979,98.288864 
	C403.197632,91.850372 416.406891,85.285759 429.595093,78.681381 
	C440.958252,72.990936 452.282074,67.220627 463.578064,61.397884 
	C472.790619,56.649086 481.936371,51.770618 491.111755,46.949638 
z"/>
<path fill="#FFFDFE" opacity="1.000000" stroke="none" 
	d="
M233.942215,221.999466 
	C234.066696,219.215836 234.191162,216.432220 234.349152,212.898712 
	C238.302734,212.898712 242.193222,212.898712 246.542084,212.817535 
	C248.480804,212.799454 249.960617,212.893600 251.441635,212.920578 
	C261.528900,213.104431 267.999725,219.568680 268.153961,229.750748 
	C268.246429,235.855713 268.194244,241.962875 268.203186,248.989975 
	C268.261841,258.269379 268.324371,266.627899 268.292236,275.425629 
	C267.926453,282.422913 268.245514,288.793579 273.942627,293.795410 
	C280.627808,299.389343 287.637787,300.396484 294.260651,296.623047 
	C301.047607,292.756104 304.326996,286.880981 303.539459,278.483185 
	C303.555725,272.008942 303.472626,265.989044 303.510620,259.517120 
	C303.549774,251.035629 303.467773,243.006195 303.385803,234.976761 
	C303.385803,227.886337 303.385803,220.795914 303.385803,212.924896 
	C310.542145,212.924896 317.235138,212.924576 323.928131,212.925034 
	C327.563721,212.925293 331.226257,212.681900 334.818512,213.076996 
	C335.897705,213.195679 336.781097,215.094406 337.860657,216.589218 
	C337.898346,225.028748 337.829590,233.056747 337.753174,242.000458 
	C337.819366,249.278000 337.893250,255.639832 337.856750,262.458679 
	C337.759979,269.281799 337.773621,275.647858 337.611328,282.362549 
	C336.420105,287.807556 335.404785,292.903961 334.222015,298.330566 
	C331.670410,303.095123 329.286224,307.529449 326.599640,312.099701 
	C315.980957,324.339905 301.842133,327.572876 286.563599,329.100647 
	C283.788025,329.006653 281.446930,328.981232 278.885040,328.604584 
	C275.442230,327.876038 272.220154,327.498718 268.668823,326.980743 
	C266.591461,326.159912 264.843353,325.479736 262.861267,324.552795 
	C259.750763,322.892883 256.874237,321.479767 253.792755,319.802124 
	C250.995911,317.241760 248.404037,314.945953 245.641861,312.338989 
	C243.792999,309.629761 242.114441,307.231720 240.435883,304.833649 
	C239.141495,301.399078 237.847107,297.964478 236.316269,293.846863 
	C235.367401,285.775116 234.654984,278.386353 234.033173,270.536804 
	C234.063248,254.050507 234.002731,238.024979 233.942215,221.999466 
z"/>
<path fill="#FA034C" opacity="1.000000" stroke="none" 
	d="
M303.027893,234.990295 
	C303.467773,243.006195 303.549774,251.035629 303.155640,259.530518 
	C297.523468,262.129547 292.329590,264.176697 287.221130,266.418579 
	C280.905945,269.190002 274.661743,272.123108 268.386902,274.986389 
	C268.324371,266.627899 268.261841,258.269379 268.293579,249.450012 
	C277.564392,248.835007 284.253143,242.610703 292.125793,239.273468 
	C295.616547,237.793701 299.153839,236.423691 303.027893,234.990295 
z"/>
<path fill="#F70C37" opacity="1.000000" stroke="none" 
	d="
M445.873047,11.185984 
	C454.637909,16.037313 463.229767,21.184549 471.570343,26.659742 
	C462.070831,30.996378 452.739227,34.825951 443.603394,39.076298 
	C437.447540,41.940231 431.675293,45.623222 425.543121,48.544575 
	C412.084473,54.956242 398.431335,60.961506 385.002686,67.433647 
	C375.745178,71.895416 366.809357,77.021126 357.587555,81.561287 
	C346.597015,86.972260 335.386719,91.936623 324.393188,97.341789 
	C306.514740,106.132080 288.784912,115.224762 270.899750,124.001137 
	C252.863907,132.851425 234.636414,141.312729 216.637253,150.235718 
	C196.750809,160.094330 177.090149,170.408081 157.213120,180.286133 
	C143.529221,187.086472 129.664169,193.524643 115.828140,200.013977 
	C113.754066,200.986771 111.395447,201.352844 109.096085,201.536438 
	C109.023720,195.713272 109.023720,190.353241 109.023720,185.060913 
	C106.934303,184.873077 105.466866,184.741150 103.999435,184.609238 
	C105.751923,182.906296 107.237602,180.710739 109.305756,179.590622 
	C116.145271,175.886246 123.214241,172.608032 130.159256,169.095291 
	C139.031113,164.608002 147.807327,159.927628 156.735107,155.555817 
	C168.456345,149.816132 180.354034,144.434860 192.043137,138.632156 
	C199.656036,134.852951 207.005829,130.546844 214.530869,126.585800 
	C217.006195,125.282837 219.709091,124.419151 222.226669,123.188370 
	C238.378296,115.292290 254.492081,107.318718 270.647949,99.431358 
	C288.031891,90.944427 305.436035,82.498505 322.855438,74.084610 
	C332.846436,69.258759 342.969513,64.699318 352.878418,59.712528 
	C362.324982,54.958405 371.506073,49.678429 380.929413,44.875923 
	C386.399231,42.088303 392.178650,39.914722 397.709900,37.239780 
	C411.597717,30.523535 425.467560,23.766033 439.233398,16.805202 
	C441.664581,15.575858 443.558136,13.283404 445.873047,11.185984 
z"/>
<path fill="#FFFDFE" opacity="1.000000" stroke="none" 
	d="
M103.539108,184.702255 
	C105.466866,184.741150 106.934303,184.873077 109.023720,185.060913 
	C109.023720,190.353241 109.023720,195.713272 109.023773,201.992676 
	C109.023834,206.163101 109.023834,209.414169 109.023834,212.997238 
	C120.918327,212.997238 132.177109,213.039536 143.435059,212.961655 
	C145.694122,212.946030 147.371567,213.183334 147.120926,215.999847 
	C147.057602,219.654312 147.012817,223.309204 146.927368,226.963165 
	C146.693756,236.952881 139.831009,243.813766 129.877258,243.917740 
	C123.093620,243.988602 116.308655,243.931305 109.023216,243.931305 
	C109.023216,254.219864 109.023216,264.146057 109.023521,274.976410 
	C108.951836,290.900970 115.351845,297.287506 130.488998,297.296722 
	C135.894913,297.300018 141.300842,297.297272 146.747437,297.297272 
	C146.895828,300.373779 147.007339,302.685577 147.037003,305.459198 
	C147.009705,311.612610 147.064240,317.304199 147.118774,322.995789 
	C146.965622,324.235352 146.812439,325.474945 146.612350,327.094299 
	C142.620392,327.094299 138.765747,327.094299 134.453094,327.177185 
	C123.394531,327.510590 113.017853,326.164368 102.512009,322.928680 
	C99.283356,320.991882 96.418488,319.075104 93.627762,317.055908 
	C81.641617,308.383362 75.808662,296.446564 74.961868,281.421509 
	C74.879532,268.880402 74.879532,256.760925 74.879532,244.119476 
	C69.817665,244.119476 64.759758,244.119476 59.331287,244.119476 
	C59.213131,242.373596 59.127941,241.114853 58.961147,239.428070 
	C58.879539,230.557220 58.879539,222.114395 58.879539,213.150650 
	C64.321342,213.150650 69.362068,213.150650 75.043106,213.150650 
	C75.043106,208.070068 75.043106,203.495789 74.961288,198.460693 
	C74.879478,193.858521 74.879478,189.717163 74.879478,184.795273 
	C84.575790,184.795273 93.827286,184.795273 103.539108,184.702255 
z"/>
<path fill="#FFFDFE" opacity="1.000000" stroke="none" 
	d="
M446.785156,303.554108 
	C443.219757,307.630249 439.725403,311.355011 436.038971,315.335388 
	C429.079681,319.086945 422.312439,322.582886 414.828735,326.327026 
	C407.771820,327.370514 401.431366,328.165833 394.874939,328.635559 
	C392.105286,327.940613 389.551666,327.571228 386.614014,327.083008 
	C384.196808,326.527283 382.163635,326.090393 379.897949,325.397644 
	C377.775879,324.491913 375.886261,323.842072 373.679596,323.102936 
	C372.105103,322.266052 370.847687,321.518463 369.373413,320.496002 
	C366.768890,318.547485 364.381195,316.873840 361.811859,314.940430 
	C360.294708,313.392242 358.959167,312.103790 357.470459,310.499878 
	C355.915588,308.716675 354.513916,307.248901 353.124664,305.464355 
	C352.573364,304.048798 352.009613,302.950012 351.335541,301.497131 
	C349.909210,298.270447 348.593201,295.397888 347.241028,292.205078 
	C346.381348,288.253693 345.557831,284.622589 344.756165,280.573914 
	C344.586609,273.775513 344.395203,267.394623 344.390198,260.678467 
	C347.126587,252.592133 349.676514,244.841080 352.226440,237.090027 
	C364.174988,218.798538 380.848114,209.388260 402.917267,210.165619 
	C404.574310,210.223969 406.223236,210.514008 408.332703,210.681915 
	C415.298279,213.056458 421.807037,215.445465 428.661011,217.908295 
	C432.761292,221.582123 436.516327,225.182129 440.581970,228.910065 
	C442.660522,231.927002 444.428528,234.816025 446.473755,237.897873 
	C448.045959,241.199051 449.340942,244.307388 450.848419,247.706055 
	C451.825409,251.459518 452.589874,254.922638 453.552612,258.703064 
	C454.079956,263.076355 454.409027,267.132355 454.855621,271.593445 
	C454.790100,274.756958 454.607056,277.515411 454.383698,280.881958 
	C448.717865,280.881958 443.316986,280.881958 436.994110,280.885956 
	C429.047516,280.946686 422.022888,281.003418 414.536621,280.973907 
	C401.884003,280.887665 389.693054,280.887665 377.188721,280.887665 
	C378.355743,289.060547 381.917847,294.403229 389.134216,297.522949 
	C398.909943,301.531677 407.910248,300.742889 415.588257,293.742615 
	C418.265564,291.301575 420.535248,290.315979 423.804199,291.616119 
	C427.217896,292.543091 430.631561,293.470032 434.445312,294.460632 
	C438.396423,295.468475 441.947510,296.412689 445.857788,297.416138 
	C451.510468,298.817444 447.471893,301.201141 446.785156,303.554108 
M406.719482,257.565063 
	C411.603424,257.565063 416.487366,257.565063 422.819397,257.565063 
	C420.990936,253.571899 419.621368,250.580933 417.778809,247.127640 
	C416.822906,246.211670 415.883820,245.277359 414.908356,244.382706 
	C408.178253,238.210083 400.320923,236.808853 391.851562,239.577789 
	C383.654755,242.257614 378.507507,247.894363 376.954346,257.269073 
	C386.811249,257.269073 396.383942,257.269073 406.719482,257.565063 
z"/>
<path fill="#F20758" opacity="1.000000" stroke="none" 
	d="
M351.837463,237.090714 
	C349.676514,244.841080 347.126587,252.592133 343.992920,260.695862 
	C341.595154,261.366241 339.781158,261.683960 337.967163,262.001648 
	C337.893250,255.639832 337.819366,249.278000 337.856445,242.459412 
	C342.461151,240.365570 346.954803,238.728485 351.837463,237.090714 
z"/>
<path fill="#FFFDFE" opacity="1.000000" stroke="none" 
	d="
M154.842148,254.999161 
	C159.107834,231.786118 172.915741,216.739548 194.754135,213.620941 
	C204.838455,212.180847 215.298996,213.375397 226.205521,213.375397 
	C226.205521,216.536621 226.205521,219.809601 226.205887,223.999115 
	C226.206253,231.163391 226.206253,237.411148 226.206253,243.970215 
	C218.818542,243.970215 212.175980,243.792770 205.546661,244.013580 
	C196.569748,244.312576 189.147690,251.217667 188.874359,260.065613 
	C188.545868,270.699280 188.906403,281.354218 188.857956,292.457245 
	C188.821274,300.276855 188.895233,307.639130 188.969177,315.001434 
	C188.969177,318.764465 188.969177,322.527466 188.969177,327.096985 
	C180.920929,327.096985 173.421661,327.096985 165.459991,327.178711 
	C161.894012,327.260406 158.790421,327.260406 155.205444,327.260406 
	C155.052383,325.611786 154.925659,324.246918 154.793686,321.978760 
	C154.728851,314.717133 154.669250,308.358795 154.701599,301.539917 
	C154.809753,285.719269 154.825943,270.359222 154.842148,254.999161 
z"/>
<path fill="#EF085D" opacity="1.000000" stroke="none" 
	d="
M240.078400,304.984497 
	C242.114441,307.231720 243.792999,309.629761 245.279236,312.515930 
	C234.542801,318.260742 224.023361,323.567627 213.450089,328.764984 
	C177.477219,346.447906 141.466309,364.053467 105.506485,381.762848 
	C74.016350,397.271088 42.578178,412.884796 11.106254,428.430084 
	C9.174895,429.384094 7.148864,430.146423 5.166882,430.997955 
	C4.437985,427.949432 3.709086,424.900879 2.933063,421.447693 
	C10.357388,417.478149 17.867107,413.990967 25.293467,410.334473 
	C52.891071,396.746185 80.433716,383.046051 108.049820,369.495575 
	C133.405518,357.054199 158.840668,344.774841 184.219299,332.380035 
	C202.737961,323.335571 221.221649,314.219513 240.078400,304.984497 
z"/>
<path fill="#FA034C" opacity="1.000000" stroke="none" 
	d="
M189.345886,314.979645 
	C188.895233,307.639130 188.821274,300.276855 189.221725,292.389893 
	C197.600632,288.175507 205.515778,284.508362 213.406403,280.789185 
	C220.266205,277.555878 227.098267,274.263763 233.942596,270.997620 
	C234.654984,278.386353 235.367401,285.775116 236.068939,293.582031 
	C233.706360,294.666412 231.193207,295.001129 229.029953,296.054443 
	C217.722687,301.560242 206.515839,307.271973 195.242828,312.848938 
	C193.485153,313.718445 191.566711,314.263031 189.345886,314.979645 
z"/>
<path fill="#BB21AE" opacity="1.000000" stroke="none" 
	d="
M395.090942,328.961121 
	C401.431366,328.165833 407.771820,327.370514 414.530823,326.498901 
	C413.776459,327.875305 412.905426,329.939331 411.385742,330.689697 
	C385.551910,343.445862 359.635742,356.035248 333.743011,368.672180 
	C329.707916,370.641510 325.708588,372.684052 321.675507,374.657593 
	C291.164307,389.587830 260.642639,404.496857 230.138992,419.442505 
	C222.678513,423.097839 215.289413,426.898621 207.838669,430.574097 
	C160.191040,454.078949 112.535385,477.567505 64.506180,501.230896 
	C61.514660,500.171875 58.899326,498.943390 56.348801,497.155701 
	C58.226574,495.425507 59.943718,494.059753 61.867218,493.113403 
	C82.767586,482.830536 103.697487,472.607666 124.624825,462.379669 
	C162.885162,443.680328 201.180618,425.052429 239.402176,406.274170 
	C272.136353,390.191803 304.785706,373.936798 337.480286,357.773773 
	C339.566742,356.742279 341.758240,355.921753 343.835785,354.874054 
	C360.929565,346.253693 378.007904,337.602783 395.090942,328.961121 
z"/>
<path fill="#EA0A64" opacity="1.000000" stroke="none" 
	d="
M5.106884,431.375671 
	C7.148864,430.146423 9.174895,429.384094 11.106254,428.430084 
	C42.578178,412.884796 74.016350,397.271088 105.506485,381.762848 
	C141.466309,364.053467 177.477219,346.447906 213.450089,328.764984 
	C224.023361,323.567627 234.542801,318.260742 245.449524,312.827087 
	C248.404037,314.945953 250.995911,317.241760 253.684265,320.120972 
	C252.615112,321.589844 251.556274,322.691193 250.267899,323.328613 
	C229.114807,333.794678 207.926254,344.189026 186.758850,354.626221 
	C160.054321,367.793701 133.358627,380.979156 106.665604,394.169952 
	C96.240486,399.321655 85.847542,404.538574 75.414238,409.673615 
	C55.293633,419.576538 35.168106,429.469818 15.001319,439.278076 
	C13.121602,440.192261 10.932412,440.470123 8.886919,441.043457 
	C7.606908,437.946777 6.326899,434.850098 5.106884,431.375671 
z"/>
<path fill="#D0178D" opacity="1.000000" stroke="none" 
	d="
M357.623657,310.815308 
	C358.959167,312.103790 360.294708,313.392242 361.723267,315.263489 
	C360.130951,317.104279 358.591431,318.655701 356.738495,319.576294 
	C328.699524,333.507660 300.626526,347.370667 272.546814,361.219879 
	C249.422272,372.625122 226.297821,384.030914 203.137543,395.363312 
	C179.523758,406.917664 155.826279,418.301453 132.237625,429.906647 
	C99.086861,446.216248 66.002701,462.661194 32.890060,479.048279 
	C31.332041,477.267365 29.774023,475.486420 28.320007,473.151215 
	C47.901592,462.819153 67.332916,452.947815 86.867134,443.284515 
	C119.672958,427.055878 152.526978,410.924316 185.393433,394.818665 
	C211.989655,381.785645 238.659241,368.902313 265.249817,355.857819 
	C291.696533,342.883972 318.075775,329.772491 344.509155,316.771393 
	C348.815430,314.653381 353.248962,312.794159 357.623657,310.815308 
z"/>
<path fill="#CB1A95" opacity="1.000000" stroke="none" 
	d="
M33.029938,479.352692 
	C66.002701,462.661194 99.086861,446.216248 132.237625,429.906647 
	C155.826279,418.301453 179.523758,406.917664 203.137543,395.363312 
	C226.297821,384.030914 249.422272,372.625122 272.546814,361.219879 
	C300.626526,347.370667 328.699524,333.507660 356.738495,319.576294 
	C358.591431,318.655701 360.130951,317.104279 361.904907,315.523224 
	C364.381195,316.873840 366.768890,318.547485 369.029175,320.666077 
	C357.430603,326.825745 345.976257,332.574493 334.484619,338.247803 
	C313.287476,348.712677 292.071533,359.139587 270.857788,369.570831 
	C231.262985,389.040466 191.649704,408.472595 152.071594,427.976135 
	C120.855232,443.359070 89.677902,458.821259 58.488472,474.258850 
	C51.944317,477.497955 45.423031,480.783234 38.891205,484.047241 
	C36.984074,482.583862 35.076946,481.120483 33.029938,479.352692 
z"/>
<path fill="#D91380" opacity="1.000000" stroke="none" 
	d="
M351.445862,301.851227 
	C352.009613,302.950012 352.573364,304.048798 352.888916,305.730316 
	C352.099670,306.697113 351.599152,307.163300 351.011688,307.453522 
	C323.280609,321.154755 295.549957,334.857056 267.800964,348.521973 
	C253.078369,355.772003 238.322952,362.955414 223.581375,370.166901 
	C194.164749,384.557404 164.714554,398.879761 135.338913,413.353455 
	C99.946426,430.791779 64.611351,448.346710 29.278992,465.906647 
	C27.696785,466.692963 26.387037,468.027496 24.950378,469.106659 
	C23.299400,466.986755 21.648418,464.866882 20.268475,462.242432 
	C43.445717,450.615021 66.396370,439.582581 89.247482,428.347717 
	C121.975143,412.257019 154.630798,396.019867 187.315491,379.841797 
	C193.574387,376.743774 199.808426,373.595093 206.083084,370.529449 
	C231.808792,357.960510 257.558167,345.439880 283.246765,332.795715 
	C284.732300,332.064514 285.758240,330.399567 286.998047,329.169189 
	C301.842133,327.572876 315.980957,324.339905 326.996490,312.101318 
	C329.887726,311.265930 332.164734,310.756226 334.255371,309.827148 
	C340.027191,307.262238 345.721130,304.522095 351.445862,301.851227 
z"/>
<path fill="#E50D6C" opacity="1.000000" stroke="none" 
	d="
M8.934502,441.416016 
	C10.932412,440.470123 13.121602,440.192261 15.001319,439.278076 
	C35.168106,429.469818 55.293633,419.576538 75.414238,409.673615 
	C85.847542,404.538574 96.240486,399.321655 106.665604,394.169952 
	C133.358627,380.979156 160.054321,367.793701 186.758850,354.626221 
	C207.926254,344.189026 229.114807,333.794678 250.267899,323.328613 
	C251.556274,322.691193 252.615112,321.589844 253.889221,320.385498 
	C256.874237,321.479767 259.750763,322.892883 262.672913,324.852875 
	C261.209869,326.400879 259.789734,327.582977 258.177368,328.372406 
	C250.416153,332.172180 242.568100,335.794983 234.814743,339.610382 
	C208.373444,352.621979 181.944397,365.658661 155.539612,378.744171 
	C138.708038,387.085419 121.975021,395.626373 105.112930,403.904907 
	C81.212700,415.638885 57.237995,427.221222 33.286877,438.851440 
	C26.261036,442.263062 19.207348,445.617371 12.166420,448.997955 
	C11.104977,446.594818 10.043530,444.191681 8.934502,441.416016 
z"/>
<path fill="#C71B9B" opacity="1.000000" stroke="none" 
	d="
M39.020569,484.339966 
	C45.423031,480.783234 51.944317,477.497955 58.488472,474.258850 
	C89.677902,458.821259 120.855232,443.359070 152.071594,427.976135 
	C191.649704,408.472595 231.262985,389.040466 270.857788,369.570831 
	C292.071533,359.139587 313.287476,348.712677 334.484619,338.247803 
	C345.976257,332.574493 357.430603,326.825745 369.246033,320.940918 
	C370.847687,321.518463 372.105103,322.266052 373.592102,323.427246 
	C372.135925,325.100006 370.595947,326.652985 368.741791,327.572601 
	C350.840698,336.451263 332.883759,345.217438 314.948486,354.027313 
	C276.529785,372.898834 238.105621,391.759216 199.700775,410.658905 
	C173.391312,423.606232 147.115814,436.622589 120.815437,449.588440 
	C99.895889,459.901550 78.958786,470.179077 58.036087,480.485840 
	C52.974213,482.979340 47.938351,485.525635 42.890530,488.047638 
	C41.643661,486.909302 40.396793,485.770996 39.020569,484.339966 
z"/>
<path fill="#D51586" opacity="1.000000" stroke="none" 
	d="
M24.979488,469.436737 
	C26.387037,468.027496 27.696785,466.692963 29.278992,465.906647 
	C64.611351,448.346710 99.946426,430.791779 135.338913,413.353455 
	C164.714554,398.879761 194.164749,384.557404 223.581375,370.166901 
	C238.322952,362.955414 253.078369,355.772003 267.800964,348.521973 
	C295.549957,334.857056 323.280609,321.154755 351.011688,307.453522 
	C351.599152,307.163300 352.099670,306.697113 352.876465,306.047058 
	C354.513916,307.248901 355.915588,308.716675 357.470459,310.499908 
	C353.248962,312.794159 348.815430,314.653381 344.509155,316.771393 
	C318.075775,329.772491 291.696533,342.883972 265.249817,355.857819 
	C238.659241,368.902313 211.989655,381.785645 185.393433,394.818665 
	C152.526978,410.924316 119.672958,427.055878 86.867134,443.284515 
	C67.332916,452.947815 47.901592,462.819153 28.186077,472.850342 
	C26.968298,471.991425 25.988449,470.879120 24.979488,469.436737 
z"/>
<path fill="#C41DA0" opacity="1.000000" stroke="none" 
	d="
M43.037666,488.338318 
	C47.938351,485.525635 52.974213,482.979340 58.036087,480.485840 
	C78.958786,470.179077 99.895889,459.901550 120.815437,449.588440 
	C147.115814,436.622589 173.391312,423.606232 199.700775,410.658905 
	C238.105621,391.759216 276.529785,372.898834 314.948486,354.027313 
	C332.883759,345.217438 350.840698,336.451263 368.741791,327.572601 
	C370.595947,326.652985 372.135925,325.100006 373.909180,323.516541 
	C375.886261,323.842072 377.775879,324.491913 379.810242,325.759338 
	C377.618958,328.092957 375.477448,330.205231 372.916290,331.462952 
	C350.672607,342.386322 328.321930,353.091675 306.063995,363.986328 
	C268.251862,382.494171 230.463440,401.050720 192.703659,419.665131 
	C158.519043,436.517151 124.387764,453.477325 90.229462,470.382721 
	C75.916878,477.466187 61.595280,484.531433 47.277790,491.604980 
	C45.913464,490.612976 44.549133,489.621002 43.037666,488.338318 
z"/>
<path fill="#C11EA5" opacity="1.000000" stroke="none" 
	d="
M47.571972,491.774872 
	C61.595280,484.531433 75.916878,477.466187 90.229462,470.382721 
	C124.387764,453.477325 158.519043,436.517151 192.703659,419.665131 
	C230.463440,401.050720 268.251862,382.494171 306.063995,363.986328 
	C328.321930,353.091675 350.672607,342.386322 372.916290,331.462952 
	C375.477448,330.205231 377.618958,328.092957 380.042755,326.015228 
	C382.163635,326.090393 384.196808,326.527283 386.578918,327.427429 
	C385.507416,329.149475 384.275757,330.786621 382.635559,331.605194 
	C372.662720,336.582184 362.573090,341.324432 352.566803,346.235474 
	C330.023560,357.299744 307.512909,368.430542 284.976746,379.509338 
	C246.902725,398.226624 208.803772,416.893280 170.744537,435.640594 
	C139.996536,450.786560 109.293304,466.023438 78.562363,481.204102 
	C77.074387,481.939148 75.437698,482.390259 73.994682,483.196320 
	C66.958466,487.126801 59.964592,491.133057 52.955730,495.112457 
	C51.259205,494.056580 49.562679,493.000671 47.571972,491.774872 
z"/>
<path fill="#E10F72" opacity="1.000000" stroke="none" 
	d="
M12.195341,449.330322 
	C19.207348,445.617371 26.261036,442.263062 33.286877,438.851440 
	C57.237995,427.221222 81.212700,415.638885 105.112930,403.904907 
	C121.975021,395.626373 138.708038,387.085419 155.539612,378.744171 
	C181.944397,365.658661 208.373444,352.621979 234.814743,339.610382 
	C242.568100,335.794983 250.416153,332.172180 258.177368,328.372406 
	C259.789734,327.582977 261.209869,326.400879 262.906921,325.099670 
	C264.843353,325.479736 266.591461,326.159912 268.585419,327.310516 
	C267.161499,329.050385 265.646484,330.635712 263.798462,331.541504 
	C239.005463,343.693817 214.117889,355.653687 189.349304,367.855255 
	C151.899658,386.303864 114.535141,404.925171 77.114304,423.432343 
	C56.394173,433.679932 35.633053,443.844635 14.890400,454.046692 
	C14.001688,452.585358 13.112977,451.124054 12.195341,449.330322 
z"/>
<path fill="#DB117B" opacity="1.000000" stroke="none" 
	d="
M286.563599,329.100647 
	C285.758240,330.399567 284.732300,332.064514 283.246765,332.795715 
	C257.558167,345.439880 231.808792,357.960510 206.083084,370.529449 
	C199.808426,373.595093 193.574387,376.743774 187.315491,379.841797 
	C154.630798,396.019867 121.975143,412.257019 89.247482,428.347717 
	C66.396370,439.582581 43.445717,450.615021 20.215015,461.892914 
	C18.975946,460.910431 18.061375,459.772858 17.366449,458.260620 
	C22.474442,455.382965 27.324196,452.800964 32.257576,450.390106 
	C58.587048,437.523407 84.955002,424.735352 111.274002,411.847351 
	C127.262199,404.018158 143.151413,395.986694 159.146057,388.170868 
	C189.365646,373.403961 219.655731,358.781158 249.859283,343.981659 
	C259.699707,339.159943 269.362030,333.974731 279.105804,328.955811 
	C281.446930,328.981232 283.788025,329.006653 286.563599,329.100647 
z"/>
<path fill="#DE1076" opacity="1.000000" stroke="none" 
	d="
M278.885040,328.604553 
	C269.362030,333.974731 259.699707,339.159943 249.859283,343.981659 
	C219.655731,358.781158 189.365646,373.403961 159.146057,388.170868 
	C143.151413,395.986694 127.262199,404.018158 111.274002,411.847351 
	C84.955002,424.735352 58.587048,437.523407 32.257576,450.390106 
	C27.324196,452.800964 22.474442,455.382965 17.234177,457.962494 
	C16.252934,456.929962 15.623605,455.820923 14.942339,454.379272 
	C35.633053,443.844635 56.394173,433.679932 77.114304,423.432343 
	C114.535141,404.925171 151.899658,386.303864 189.349304,367.855255 
	C214.117889,355.653687 239.005463,343.693817 263.798462,331.541504 
	C265.646484,330.635712 267.161499,329.050385 268.914703,327.451172 
	C272.220154,327.498718 275.442230,327.876038 278.885040,328.604553 
z"/>
<path fill="#BE20A9" opacity="1.000000" stroke="none" 
	d="
M53.092590,495.394379 
	C59.964592,491.133057 66.958466,487.126801 73.994682,483.196320 
	C75.437698,482.390259 77.074387,481.939148 78.562363,481.204102 
	C109.293304,466.023438 139.996536,450.786560 170.744537,435.640594 
	C208.803772,416.893280 246.902725,398.226624 284.976746,379.509338 
	C307.512909,368.430542 330.023560,357.299744 352.566803,346.235474 
	C362.573090,341.324432 372.662720,336.582184 382.635559,331.605194 
	C384.275757,330.786621 385.507416,329.149475 386.962952,327.546265 
	C389.551666,327.571228 392.105286,327.940613 394.874939,328.635559 
	C378.007904,337.602783 360.929565,346.253693 343.835785,354.874054 
	C341.758240,355.921753 339.566742,356.742279 337.480286,357.773773 
	C304.785706,373.936798 272.136353,390.191803 239.402176,406.274170 
	C201.180618,425.052429 162.885162,443.680328 124.624825,462.379669 
	C103.697487,472.607666 82.767586,482.830536 61.867218,493.113403 
	C59.943718,494.059753 58.226574,495.425507 56.181358,496.850769 
	C55.042557,496.628784 54.136002,496.152527 53.092590,495.394379 
z"/>
<path fill="#F80A3A" opacity="1.000000" stroke="none" 
	d="
M147.502136,215.993805 
	C147.371567,213.183334 145.694122,212.946030 143.435059,212.961655 
	C132.177109,213.039536 120.918327,212.997238 109.023834,212.997238 
	C109.023834,209.414169 109.023834,206.163101 109.096146,202.455811 
	C111.395447,201.352844 113.754066,200.986771 115.828140,200.013977 
	C129.664169,193.524643 143.529221,187.086472 157.213120,180.286133 
	C177.090149,170.408081 196.750809,160.094330 216.637253,150.235718 
	C234.636414,141.312729 252.863907,132.851425 270.899750,124.001137 
	C288.784912,115.224762 306.514740,106.132080 324.393188,97.341789 
	C335.386719,91.936623 346.597015,86.972260 357.587555,81.561287 
	C366.809357,77.021126 375.745178,71.895416 385.002686,67.433647 
	C398.431335,60.961506 412.084473,54.956242 425.543121,48.544575 
	C431.675293,45.623222 437.447540,41.940231 443.603394,39.076298 
	C452.739227,34.825951 462.070831,30.996378 471.719177,26.974102 
	C478.353241,33.416409 484.587280,39.872311 490.966522,46.638924 
	C481.936371,51.770618 472.790619,56.649086 463.578064,61.397884 
	C452.282074,67.220627 440.958252,72.990936 429.595093,78.681381 
	C416.406891,85.285759 403.197632,91.850372 389.927979,98.288864 
	C383.702637,101.309387 377.211304,103.788116 371.025848,106.882736 
	C363.384521,110.705765 356.022491,115.087250 348.379730,118.907234 
	C340.679321,122.756027 332.718140,126.080673 324.988892,129.874695 
	C315.797638,134.386353 306.766296,139.222900 297.597961,143.782547 
	C292.562714,146.286697 287.373108,148.478714 282.279602,150.867966 
	C270.895050,156.208206 259.438873,161.406158 248.178818,166.998260 
	C238.226257,171.941055 228.552322,177.441971 218.653641,182.497253 
	C212.755859,185.509262 206.615616,188.042587 200.664917,190.955627 
	C184.330612,198.951813 168.046783,207.051056 151.713409,215.049118 
	C150.560059,215.613892 149.165665,215.686371 147.502136,215.993805 
z"/>
<path fill="#FC0248" opacity="1.000000" stroke="none" 
	d="
M154.609680,302.000458 
	C154.669250,308.358795 154.728851,314.717133 154.698608,321.535950 
	C152.371109,322.329498 150.133423,322.662598 147.507263,322.995728 
	C147.064240,317.304199 147.009705,311.612610 147.367462,305.382141 
	C150.056412,303.895691 152.333038,302.948059 154.609680,302.000458 
z"/>
<path fill="#D0178D" opacity="1.000000" stroke="none" 
	d="
M414.998291,281.060150 
	C422.022888,281.003418 429.047516,280.946686 436.533325,280.975952 
	C434.736298,282.836670 432.501984,284.642914 430.212677,286.376587 
	C428.177368,287.917938 426.081116,289.378845 423.907959,291.245667 
	C420.535248,290.315979 418.265564,291.301575 415.588257,293.742615 
	C407.910248,300.742889 398.909943,301.531677 389.313599,297.209412 
	C390.657318,295.538300 391.943909,294.190308 393.512024,293.403351 
	C399.423920,290.436493 405.481293,287.756531 411.358490,284.725403 
	C412.814575,283.974457 413.797729,282.306549 414.998291,281.060150 
z"/>
<path fill="#FD0343" opacity="1.000000" stroke="none" 
	d="
M234.033173,270.536835 
	C227.098267,274.263763 220.266205,277.555878 213.406403,280.789185 
	C205.515778,284.508362 197.600632,288.175507 189.332367,291.932617 
	C188.906403,281.354218 188.545868,270.699280 188.874359,260.065613 
	C189.147690,251.217667 196.569748,244.312576 205.546661,244.013580 
	C212.175980,243.792770 218.818542,243.970215 226.206253,243.970215 
	C226.206253,237.411148 226.206253,231.163391 226.298889,224.454880 
	C228.666443,223.343689 230.941360,222.693268 233.579254,222.021149 
	C234.002731,238.024979 234.063248,254.050507 234.033173,270.536835 
z"/>
<path fill="#FC0442" opacity="1.000000" stroke="none" 
	d="
M154.701614,301.539917 
	C152.333038,302.948059 150.056412,303.895691 147.449310,304.920349 
	C147.007339,302.685577 146.895828,300.373779 146.747437,297.297272 
	C141.300842,297.297272 135.894913,297.300018 130.488998,297.296722 
	C115.351845,297.287506 108.951836,290.900970 109.095840,275.440125 
	C114.967644,272.290253 120.724213,269.483124 126.577232,266.894104 
	C135.705566,262.856293 144.899353,258.966461 154.453781,255.006546 
	C154.825943,270.359222 154.809753,285.719269 154.701614,301.539917 
z"/>
<path fill="#F20758" opacity="1.000000" stroke="none" 
	d="
M268.292236,275.425629 
	C274.661743,272.123108 280.905945,269.190002 287.221130,266.418579 
	C292.329590,264.176697 297.523468,262.129547 303.034485,259.982605 
	C303.472626,265.989044 303.555725,272.008942 303.184692,278.501404 
	C297.558807,281.123077 292.252533,283.002838 287.254578,285.499786 
	C282.598145,287.826080 278.269836,290.809143 273.797089,293.503113 
	C268.245514,288.793579 267.926453,282.422913 268.292236,275.425629 
z"/>
<path fill="#F01A69" opacity="1.000000" stroke="none" 
	d="
M273.942627,293.795410 
	C278.269836,290.809143 282.598145,287.826080 287.254578,285.499786 
	C292.252533,283.002838 297.558807,281.123077 303.085327,278.955780 
	C304.326996,286.880981 301.047607,292.756104 294.260651,296.623047 
	C287.637787,300.396484 280.627808,299.389343 273.942627,293.795410 
z"/>
<path fill="#DB117B" opacity="1.000000" stroke="none" 
	d="
M351.335541,301.497131 
	C345.721130,304.522095 340.027191,307.262238 334.255371,309.827148 
	C332.164734,310.756226 329.887726,311.265930 327.298920,311.965393 
	C329.286224,307.529449 331.670410,303.095123 334.589172,298.319702 
	C339.174927,296.160858 343.226044,294.343109 347.277191,292.525330 
	C348.593201,295.397888 349.909210,298.270447 351.335541,301.497131 
z"/>
<path fill="#E10F72" opacity="1.000000" stroke="none" 
	d="
M347.241028,292.205078 
	C343.226044,294.343109 339.174927,296.160858 334.756622,297.989502 
	C335.404785,292.903961 336.420105,287.807556 338.010559,282.355438 
	C340.635223,281.663605 342.684753,281.327545 344.734314,280.991455 
	C345.557831,284.622589 346.381348,288.253693 347.241028,292.205078 
z"/>
<path fill="#EA0A64" opacity="1.000000" stroke="none" 
	d="
M344.756165,280.573914 
	C342.684753,281.327545 340.635223,281.663605 338.186462,282.006805 
	C337.773621,275.647858 337.759979,269.281799 337.856750,262.458679 
	C339.781158,261.683960 341.595154,261.366241 343.806458,261.031158 
	C344.395203,267.394623 344.586609,273.775513 344.756165,280.573914 
z"/>
<path fill="#E50D6C" opacity="1.000000" stroke="none" 
	d="
M405.956665,257.269073 
	C396.383942,257.269073 386.811249,257.269073 376.954346,257.269073 
	C378.507507,247.894363 383.654755,242.257614 391.851562,239.577789 
	C400.320923,236.808853 408.178253,238.210083 414.908356,244.382706 
	C415.883820,245.277359 416.822906,246.211670 417.902832,247.720856 
	C415.833954,249.846924 413.608459,251.335693 411.458008,252.925888 
	C409.580353,254.314301 407.787170,255.816910 405.956665,257.269073 
z"/>
<path fill="#D51586" opacity="1.000000" stroke="none" 
	d="
M414.536621,280.973907 
	C413.797729,282.306549 412.814575,283.974457 411.358490,284.725403 
	C405.481293,287.756531 399.423920,290.436493 393.512024,293.403351 
	C391.943909,294.190308 390.657318,295.538300 389.062073,296.942200 
	C381.917847,294.403229 378.355743,289.060547 377.188721,280.887665 
	C389.693054,280.887665 401.884003,280.887665 414.536621,280.973907 
z"/>
<path fill="#E73789" opacity="1.000000" stroke="none" 
	d="
M406.338074,257.417053 
	C407.787170,255.816910 409.580353,254.314301 411.458008,252.925888 
	C413.608459,251.335693 415.833954,249.846924 418.139343,247.952026 
	C419.621368,250.580933 420.990936,253.571899 422.819397,257.565063 
	C416.487366,257.565063 411.603424,257.565063 406.338074,257.417053 
z"/>
</svg>